<?xml version="1.0" encoding="UTF-8" ?>
<!DOCTYPE svg PUBLIC "-//W3C//DTD SVG 1.1//EN" "http://www.w3.org/Graphics/SVG/1.1/DTD/svg11.dtd">
<svg width="153pt" height="132pt" viewBox="0 0 153 132" version="1.1" xmlns="http://www.w3.org/2000/svg">
<path fill="#272727" d=" M 0.00 0.00 L 5.94 0.00 C 5.63 1.40 5.51 2.83 5.99 4.21 C 4.60 8.16 2.52 2.63 0.00 3.72 L 0.00 0.00 Z" />
<path fill="#565656" d=" M 5.94 0.00 L 10.21 0.00 C 8.55 1.13 7.15 2.57 5.99 4.21 C 5.51 2.83 5.63 1.40 5.94 0.00 Z" />
<path fill="#393939" d=" M 10.21 0.00 L 13.82 0.00 C 14.13 3.19 12.41 5.10 9.91 6.79 C 11.93 7.08 14.94 8.99 15.74 6.04 C 17.86 7.56 22.12 4.50 21.04 8.62 C 19.17 8.20 15.93 8.09 15.89 10.71 C 17.31 10.59 18.73 10.43 20.15 10.30 C 19.14 11.88 17.91 13.31 16.93 14.91 C 19.44 13.91 21.87 14.07 23.03 16.82 C 21.64 17.30 19.78 18.52 19.65 16.16 C 16.59 18.15 17.04 21.85 16.79 25.12 C 16.53 24.55 16.02 23.41 15.77 22.84 C 15.80 22.42 15.85 21.58 15.87 21.16 C 15.99 19.38 16.01 17.58 15.91 15.79 C 14.66 16.93 13.73 18.35 12.71 19.69 C 12.41 20.00 11.81 20.63 11.52 20.94 C 11.49 23.01 9.09 23.74 8.00 21.99 C 6.95 20.09 5.80 22.22 4.74 22.93 L 4.24 23.34 C 2.90 24.41 1.60 25.58 0.00 26.25 L 0.00 3.72 C 2.52 2.63 4.60 8.16 5.99 4.21 C 7.15 2.57 8.55 1.13 10.21 0.00 Z" />
<path fill="#4b4b4b" d=" M 13.82 0.00 L 18.20 0.00 C 15.97 1.07 15.15 3.74 15.74 6.04 C 14.94 8.99 11.93 7.08 9.91 6.79 C 12.41 5.10 14.13 3.19 13.82 0.00 Z" />
<path fill="#2d2d2d" d=" M 18.20 0.00 L 68.86 0.00 C 68.53 4.61 67.35 9.23 64.85 13.16 C 63.04 12.79 61.57 11.65 59.94 10.88 C 59.67 13.24 62.11 14.13 63.53 15.48 C 64.33 16.82 63.87 18.51 64.08 19.99 C 63.57 20.00 62.56 20.01 62.06 20.02 C 57.00 19.98 51.95 20.05 46.90 19.97 C 46.77 18.23 46.93 16.75 48.97 17.58 C 49.54 15.91 49.54 14.13 49.53 12.38 C 45.76 12.00 46.48 6.77 43.28 5.78 C 43.50 6.83 43.71 7.88 43.91 8.93 C 42.75 8.83 41.58 8.69 40.44 8.44 C 39.57 7.35 39.58 4.93 37.83 4.98 C 35.19 6.29 32.94 8.53 29.82 8.91 C 30.12 6.09 34.81 6.93 34.94 3.94 C 35.99 0.68 32.02 2.80 30.26 2.84 C 29.58 2.30 28.52 0.23 27.62 1.65 C 25.88 3.33 28.41 4.45 29.80 4.98 C 29.28 8.16 28.29 11.34 25.74 13.50 C 24.68 13.77 23.69 14.20 22.79 14.80 C 24.22 14.93 25.66 15.06 27.09 15.19 C 26.68 17.46 25.37 20.40 23.88 16.89 C 23.06 19.96 27.03 21.32 26.26 24.17 C 23.40 26.08 24.00 22.89 23.83 20.86 C 21.75 21.58 21.19 24.65 23.38 25.61 C 25.22 26.36 24.26 28.53 24.98 29.98 C 27.49 28.20 30.07 26.53 32.65 24.85 C 33.82 31.21 41.47 28.61 46.01 28.93 C 50.59 28.27 55.26 29.15 59.80 28.23 C 60.34 28.51 61.43 29.07 61.97 29.35 C 57.81 34.56 51.50 37.26 46.62 41.69 C 44.54 42.91 42.54 44.27 40.70 45.84 C 40.26 46.15 39.37 46.78 38.93 47.09 C 38.31 47.55 37.70 48.03 37.11 48.53 C 33.90 50.94 30.81 53.56 27.23 55.41 C 23.84 54.68 23.63 50.50 20.39 49.93 C 20.61 48.10 21.71 45.66 19.22 45.01 C 18.70 45.90 18.21 46.80 17.73 47.72 C 16.69 46.67 15.68 45.61 14.51 44.72 C 14.67 42.27 18.90 38.41 11.42 40.63 C 10.36 39.33 10.29 36.53 8.03 37.03 C 4.70 36.96 8.05 41.58 5.10 42.01 C 2.19 37.64 7.80 34.67 9.06 30.89 C 9.45 31.84 12.03 34.45 11.94 32.03 C 11.89 29.66 12.41 29.84 13.28 31.72 C 14.95 29.67 17.47 27.89 20.25 28.54 C 19.27 27.24 17.88 26.32 16.79 25.12 C 17.04 21.85 16.59 18.15 19.65 16.16 C 19.78 18.52 21.64 17.30 23.03 16.82 C 21.87 14.07 19.44 13.91 16.93 14.91 C 17.91 13.31 19.14 11.88 20.15 10.30 C 18.73 10.43 17.31 10.59 15.89 10.71 C 15.93 8.09 19.17 8.20 21.04 8.62 C 22.12 4.50 17.86 7.56 15.74 6.04 C 15.15 3.74 15.97 1.07 18.20 0.00 Z" />
<path fill="#3b3b3b" d=" M 68.86 0.00 L 72.89 0.00 C 72.95 1.39 73.04 2.78 73.15 4.17 C 74.12 3.17 74.97 2.06 75.87 1.00 C 76.02 3.40 77.74 6.46 75.04 8.04 C 77.15 9.88 79.79 8.93 79.88 6.08 C 78.38 4.30 76.82 2.46 76.71 0.00 L 80.79 0.00 C 81.03 2.05 81.49 4.06 82.16 6.01 C 82.50 7.22 82.77 8.45 82.93 9.70 C 80.40 12.73 79.99 16.70 82.22 19.95 C 79.16 19.98 76.11 20.03 73.05 20.03 C 73.37 16.93 76.49 13.39 72.31 11.53 C 72.16 11.14 71.86 10.36 71.71 9.97 C 69.66 11.80 67.73 13.89 67.85 16.83 L 67.27 17.27 C 67.41 15.52 66.91 13.39 64.85 13.16 C 67.35 9.23 68.53 4.61 68.86 0.00 Z" />
<path fill="#2a2a2a" d=" M 72.89 0.00 L 76.71 0.00 C 76.82 2.46 78.38 4.30 79.88 6.08 C 79.79 8.93 77.15 9.88 75.04 8.04 C 77.74 6.46 76.02 3.40 75.87 1.00 C 74.97 2.06 74.12 3.17 73.15 4.17 C 73.04 2.78 72.95 1.39 72.89 0.00 Z" />
<path fill="#282828" d=" M 80.79 0.00 L 84.11 0.00 C 83.38 0.98 82.64 1.95 81.96 2.97 C 82.99 2.72 84.03 2.47 85.06 2.22 C 85.36 4.60 85.12 6.80 82.16 6.01 C 81.49 4.06 81.03 2.05 80.79 0.00 Z" />
<path fill="#484848" d=" M 84.11 0.00 L 84.90 0.00 C 87.31 1.95 86.78 5.02 86.70 7.76 C 85.47 8.46 84.16 8.99 82.93 9.70 C 82.77 8.45 82.50 7.22 82.16 6.01 C 85.12 6.80 85.36 4.60 85.06 2.22 C 84.03 2.47 82.99 2.72 81.96 2.97 C 82.64 1.95 83.38 0.98 84.11 0.00 Z" />
<path fill="#343434" d=" M 84.90 0.00 L 120.06 0.00 C 118.54 1.94 117.68 4.26 116.78 6.53 C 114.00 6.97 110.98 5.19 111.45 2.07 C 107.60 2.08 105.28 5.55 102.39 7.57 C 101.14 5.82 99.36 4.64 97.60 3.47 C 94.14 4.89 93.75 9.43 90.26 10.40 C 90.42 11.90 90.82 13.35 90.99 14.84 C 87.41 13.08 86.99 17.59 85.94 19.98 C 84.70 19.99 83.46 19.98 82.22 19.95 C 79.99 16.70 80.40 12.73 82.93 9.70 C 84.16 8.99 85.47 8.46 86.70 7.76 C 86.78 5.02 87.31 1.95 84.90 0.00 Z" />
<path fill="#545454" d=" M 120.06 0.00 L 120.95 0.00 C 121.00 1.94 121.06 3.87 121.19 5.80 C 119.83 6.53 118.28 6.53 116.78 6.53 C 117.68 4.26 118.54 1.94 120.06 0.00 Z" />
<path fill="#444444" d=" M 120.95 0.00 L 124.53 0.00 C 126.01 0.57 127.55 0.95 129.10 1.34 C 127.78 1.92 126.43 2.39 125.16 3.05 C 128.08 7.68 126.32 13.80 126.03 18.95 C 124.19 19.21 125.37 16.23 124.77 15.14 C 123.28 14.41 123.38 15.65 123.35 16.73 C 122.21 18.32 120.80 19.83 121.00 21.95 C 120.10 21.50 119.17 21.10 118.22 20.75 C 115.91 20.31 113.59 20.03 111.23 19.89 C 111.35 17.81 107.42 15.67 110.89 15.03 C 113.25 18.81 116.57 14.50 118.98 12.86 C 119.17 12.69 119.56 12.34 119.76 12.16 C 121.64 14.01 123.28 12.05 124.65 10.71 C 123.68 8.97 123.20 6.62 121.19 5.80 C 121.06 3.87 121.00 1.94 120.95 0.00 Z" />
<path fill="#383838" d=" M 124.53 0.00 L 132.95 0.00 C 132.36 3.01 132.47 6.09 132.03 9.12 C 132.73 8.44 133.50 5.96 134.08 8.05 C 135.91 10.00 133.57 11.84 132.83 13.69 C 134.15 13.44 135.47 13.14 136.82 13.02 C 137.02 14.25 137.21 15.49 137.37 16.73 C 135.55 16.14 133.37 15.31 134.74 17.99 C 134.07 17.98 132.72 17.98 132.05 17.98 C 129.30 15.93 128.80 20.65 128.17 22.54 C 130.58 25.02 133.15 24.45 135.60 22.43 C 136.76 24.06 140.28 25.77 136.92 27.09 C 139.07 27.40 140.30 26.51 140.33 24.31 C 143.76 25.46 144.76 21.37 146.20 19.15 C 148.28 18.21 147.89 20.48 148.17 21.81 C 149.89 21.04 151.73 20.37 153.00 18.90 L 153.00 27.32 C 150.72 27.42 151.66 25.56 151.83 24.15 C 150.22 22.83 148.03 22.78 146.11 22.20 C 146.25 23.01 146.37 23.83 146.49 24.64 C 142.86 26.78 139.39 29.34 135.21 30.12 C 135.51 33.42 135.66 36.74 136.70 39.92 C 136.01 40.65 135.16 41.05 134.14 41.11 C 134.35 39.25 135.50 36.99 133.27 35.95 C 133.19 33.75 132.97 30.91 130.13 30.78 C 131.16 32.81 132.04 34.89 132.84 37.01 C 131.72 39.34 129.42 41.21 130.88 44.00 C 126.14 44.88 131.12 37.18 127.61 35.40 C 126.86 34.94 125.00 31.60 124.95 33.89 C 122.81 38.74 128.27 42.17 127.94 46.79 C 126.63 47.76 123.38 47.26 123.23 48.91 C 125.23 49.31 127.66 50.59 129.32 48.73 C 129.66 47.44 129.98 46.13 130.49 44.88 C 130.81 46.73 131.68 48.12 133.59 48.53 C 131.79 53.98 138.22 55.01 138.28 59.78 C 140.78 59.06 144.23 54.35 145.92 58.09 C 143.05 52.10 148.43 51.92 151.90 50.89 C 151.90 52.85 149.59 56.39 153.00 56.31 L 153.00 61.68 C 150.10 61.29 147.60 63.14 145.35 64.69 C 144.13 62.19 143.94 63.62 143.88 65.69 C 139.87 63.93 144.54 69.43 141.09 69.97 C 141.07 68.69 140.98 67.42 140.83 66.15 C 133.07 59.81 124.27 54.82 116.83 48.08 C 117.62 45.62 115.08 44.20 112.99 45.15 C 112.69 44.96 112.08 44.57 111.78 44.38 C 112.57 44.25 114.14 43.99 114.93 43.85 C 114.59 40.95 113.83 37.17 115.84 34.86 C 116.31 36.43 115.13 39.77 117.88 39.01 C 115.43 34.74 121.08 32.12 120.35 28.10 C 120.81 26.08 120.99 24.02 121.00 21.95 C 120.80 19.83 122.21 18.32 123.35 16.73 C 123.38 15.65 123.28 14.41 124.77 15.14 C 125.37 16.23 124.19 19.21 126.03 18.95 C 126.32 13.80 128.08 7.68 125.16 3.05 C 126.43 2.39 127.78 1.92 129.10 1.34 C 127.55 0.95 126.01 0.57 124.53 0.00 Z" />
<path fill="#272727" d=" M 132.95 0.00 L 153.00 0.00 L 153.00 18.90 C 151.73 20.37 149.89 21.04 148.17 21.81 C 147.89 20.48 148.28 18.21 146.20 19.15 C 144.76 21.37 143.76 25.46 140.33 24.31 C 140.30 26.51 139.07 27.40 136.92 27.09 C 140.28 25.77 136.76 24.06 135.60 22.43 C 133.15 24.45 130.58 25.02 128.17 22.54 C 128.80 20.65 129.30 15.93 132.05 17.98 C 132.03 19.35 132.03 20.73 132.05 22.11 C 132.96 20.81 134.85 17.50 135.41 20.92 C 136.13 19.58 137.87 18.40 137.37 16.73 C 137.21 15.49 137.02 14.25 136.82 13.02 C 135.47 13.14 134.15 13.44 132.83 13.69 C 133.57 11.84 135.91 10.00 134.08 8.05 C 133.50 5.96 132.73 8.44 132.03 9.12 C 132.47 6.09 132.36 3.01 132.95 0.00 Z" />
<path fill="#424242" d=" M 27.62 1.65 C 28.52 0.23 29.58 2.30 30.26 2.84 C 30.15 3.38 29.92 4.44 29.80 4.98 C 28.41 4.45 25.88 3.33 27.62 1.65 Z" />
<path fill="#494949" d=" M 18.22 2.10 C 20.53 3.45 24.25 0.76 23.03 4.87 C 21.10 3.64 19.01 4.37 17.04 5.06 C 17.41 4.06 17.81 3.08 18.22 2.10 Z" />
<path fill="#242424" d=" M 30.26 2.84 C 32.02 2.80 35.99 0.68 34.94 3.94 C 34.81 6.93 30.12 6.09 29.82 8.91 C 32.94 8.53 35.19 6.29 37.83 4.98 C 38.14 6.29 38.50 7.59 38.93 8.87 C 36.39 9.79 35.52 12.39 35.29 14.85 C 33.17 12.25 30.58 15.08 28.22 13.98 C 27.44 13.62 26.61 13.46 25.74 13.50 C 28.29 11.34 29.28 8.16 29.80 4.98 C 29.92 4.44 30.15 3.38 30.26 2.84 Z" />
<path fill="#404040" d=" M 102.39 7.57 C 105.28 5.55 107.60 2.08 111.45 2.07 C 110.98 5.19 114.00 6.97 116.78 6.53 C 118.28 6.53 119.83 6.53 121.19 5.80 C 121.57 7.19 121.90 8.60 122.13 10.03 C 121.44 9.35 120.75 8.67 120.06 7.99 C 119.95 9.38 119.85 10.77 119.76 12.16 C 119.56 12.34 119.17 12.69 118.98 12.86 C 114.91 13.62 114.61 9.61 112.07 7.57 C 110.89 6.24 109.65 5.30 110.02 7.96 C 107.40 5.78 107.99 9.13 107.80 11.02 C 103.84 8.49 99.84 16.59 103.88 18.90 C 104.18 19.18 104.77 19.72 105.07 19.99 C 98.69 19.98 92.32 20.05 85.94 19.98 C 86.99 17.59 87.41 13.08 90.99 14.84 C 90.82 13.35 90.42 11.90 90.26 10.40 C 93.75 9.43 94.14 4.89 97.60 3.47 C 99.36 4.64 101.14 5.82 102.39 7.57 Z" />
<path fill="#424242" d=" M 37.83 4.98 C 39.58 4.93 39.57 7.35 40.44 8.44 C 41.58 8.69 42.75 8.83 43.91 8.93 C 43.71 7.88 43.50 6.83 43.28 5.78 C 46.48 6.77 45.76 12.00 49.53 12.38 C 49.54 14.13 49.54 15.91 48.97 17.58 C 46.93 16.75 46.77 18.23 46.90 19.97 C 46.41 19.97 45.42 19.97 44.92 19.96 C 44.47 17.36 45.20 14.57 43.81 12.18 C 41.88 12.28 39.99 12.66 38.09 12.96 C 39.03 11.70 40.03 10.40 38.93 8.87 C 38.50 7.59 38.14 6.29 37.83 4.98 Z" />
<path fill="#282828" d=" M 110.02 7.96 C 109.65 5.30 110.89 6.24 112.07 7.57 C 111.42 9.97 111.37 12.72 109.15 14.18 C 109.48 12.11 109.92 10.06 110.02 7.96 Z" />
<path fill="#565656" d=" M 121.19 5.80 C 123.20 6.62 123.68 8.97 124.65 10.71 C 123.28 12.05 121.64 14.01 119.76 12.16 C 119.85 10.77 119.95 9.38 120.06 7.99 C 120.75 8.67 121.44 9.35 122.13 10.03 C 121.90 8.60 121.57 7.19 121.19 5.80 Z" />
<path fill="#525252" d=" M 107.80 11.02 C 107.99 9.13 107.40 5.78 110.02 7.96 C 109.92 10.06 109.48 12.11 109.15 14.18 C 111.37 12.72 111.42 9.97 112.07 7.57 C 114.61 9.61 114.91 13.62 118.98 12.86 C 116.57 14.50 113.25 18.81 110.89 15.03 C 107.42 15.67 111.35 17.81 111.23 19.89 C 109.18 19.96 107.12 20.02 105.07 19.99 C 104.77 19.72 104.18 19.18 103.88 18.90 C 104.05 18.39 104.39 17.35 104.55 16.83 C 105.37 19.65 108.67 18.97 107.84 16.03 C 107.73 14.36 107.68 12.69 107.80 11.02 Z" />
<path fill="#2e2e2e" d=" M 35.29 14.85 C 35.52 12.39 36.39 9.79 38.93 8.87 C 40.03 10.40 39.03 11.70 38.09 12.96 C 39.99 12.66 41.88 12.28 43.81 12.18 C 45.20 14.57 44.47 17.36 44.92 19.96 C 42.30 19.97 39.67 19.94 37.05 19.90 C 36.70 18.14 36.67 16.19 35.29 14.85 Z" />
<path fill="#272727" d=" M 67.85 16.83 C 67.73 13.89 69.66 11.80 71.71 9.97 C 71.86 10.36 72.16 11.14 72.31 11.53 C 71.31 12.49 70.31 13.45 69.31 14.40 C 70.06 15.55 71.01 16.55 71.81 17.66 C 70.11 17.83 70.22 18.83 70.97 20.04 C 69.68 20.04 68.38 20.04 67.09 20.02 C 67.41 18.98 67.67 17.91 67.85 16.83 Z" />
<path fill="#2b2b2b" d=" M 103.88 18.90 C 99.84 16.59 103.84 8.49 107.80 11.02 C 107.68 12.69 107.73 14.36 107.84 16.03 C 106.45 15.66 104.53 14.44 104.55 16.83 C 104.39 17.35 104.05 18.39 103.88 18.90 Z" />
<path fill="#4b4b4b" d=" M 59.94 10.88 C 61.57 11.65 63.04 12.79 64.85 13.16 C 64.96 14.47 65.28 18.59 67.27 17.27 L 67.85 16.83 C 67.67 17.91 67.41 18.98 67.09 20.02 C 66.34 20.01 64.83 20.00 64.08 19.99 C 63.87 18.51 64.33 16.82 63.53 15.48 C 62.11 14.13 59.67 13.24 59.94 10.88 Z" />
<path fill="#505050" d=" M 12.18 12.29 C 13.65 11.71 13.54 15.00 14.06 16.03 C 11.76 16.76 9.63 13.41 12.18 12.29 Z" />
<path fill="#484848" d=" M 69.31 14.40 C 70.31 13.45 71.31 12.49 72.31 11.53 C 76.49 13.39 73.37 16.93 73.05 20.03 C 72.53 20.03 71.49 20.03 70.97 20.04 C 70.22 18.83 70.11 17.83 71.81 17.66 C 71.01 16.55 70.06 15.55 69.31 14.40 Z" />
<path fill="#4c4c4c" d=" M 25.74 13.50 C 26.61 13.46 27.44 13.62 28.22 13.98 C 28.72 15.76 28.36 17.43 27.17 18.84 C 29.64 18.70 31.42 19.64 32.01 22.12 C 30.23 23.24 28.54 24.98 26.26 24.17 C 27.03 21.32 23.06 19.96 23.88 16.89 C 25.37 20.40 26.68 17.46 27.09 15.19 C 25.66 15.06 24.22 14.93 22.79 14.80 C 23.69 14.20 24.68 13.77 25.74 13.50 Z" />
<path fill="#383838" d=" M 28.22 13.98 C 30.58 15.08 33.17 12.25 35.29 14.85 C 34.65 16.65 34.88 20.58 32.01 19.38 C 32.01 20.06 32.01 21.43 32.01 22.12 C 31.42 19.64 29.64 18.70 27.17 18.84 C 28.36 17.43 28.72 15.76 28.22 13.98 Z" />
<path fill="#1b1b1b" d=" M 64.85 13.16 C 66.91 13.39 67.41 15.52 67.27 17.27 C 65.28 18.59 64.96 14.47 64.85 13.16 Z" />
<path fill="#585858" d=" M 96.17 13.12 C 99.19 11.98 97.66 15.10 96.49 16.25 C 96.71 17.26 96.64 19.12 95.16 18.86 C 92.76 17.33 95.09 14.72 96.17 13.12 Z" />
<path fill="#5d5d5d" d=" M 35.29 14.85 C 36.67 16.19 36.70 18.14 37.05 19.90 C 36.70 20.13 36.00 20.60 35.65 20.83 C 34.64 21.35 33.91 22.22 33.17 23.06 C 32.88 22.83 32.30 22.36 32.01 22.12 C 32.01 21.43 32.01 20.06 32.01 19.38 C 34.88 20.58 34.65 16.65 35.29 14.85 Z" />
<path fill="#3f3f3f" d=" M 104.55 16.83 C 104.53 14.44 106.45 15.66 107.84 16.03 C 108.67 18.97 105.37 19.65 104.55 16.83 Z" />
<path fill="#4d4d4d" d=" M 12.71 19.69 C 13.73 18.35 14.66 16.93 15.91 15.79 C 16.01 17.58 15.99 19.38 15.87 21.16 C 14.81 20.69 13.75 20.20 12.71 19.69 Z" />
<path fill="#484848" d=" M 134.74 17.99 C 133.37 15.31 135.55 16.14 137.37 16.73 C 137.87 18.40 136.13 19.58 135.41 20.92 C 134.85 17.50 132.96 20.81 132.05 22.11 C 132.03 20.73 132.03 19.35 132.05 17.98 C 132.72 17.98 134.07 17.98 134.74 17.99 Z" />
<path fill="#393939" d=" M 143.18 16.16 C 146.10 14.55 145.52 23.21 142.19 22.08 C 143.03 20.14 142.01 18.02 143.18 16.16 Z" />
<path fill="#2b2b2b" d=" M 11.52 20.94 C 11.81 20.63 12.41 20.00 12.71 19.69 C 13.75 20.20 14.81 20.69 15.87 21.16 C 15.85 21.58 15.80 22.42 15.77 22.84 C 14.14 23.13 13.39 24.63 12.48 25.82 C 10.74 24.79 11.82 22.58 11.52 20.94 Z" />
<path fill="#b5b5b5" d=" M 35.65 20.83 C 36.00 20.60 36.70 20.13 37.05 19.90 C 39.67 19.94 42.30 19.97 44.92 19.96 C 45.42 19.97 46.41 19.97 46.90 19.97 C 51.95 20.05 57.00 19.98 62.06 20.02 L 62.04 20.95 C 61.74 21.16 61.15 21.56 60.85 21.77 C 52.48 20.72 43.93 22.48 35.65 20.83 Z" />
<path fill="#c8c8c8" d=" M 62.06 20.02 C 62.56 20.01 63.57 20.00 64.08 19.99 C 64.83 20.00 66.34 20.01 67.09 20.02 C 68.38 20.04 69.68 20.04 70.97 20.04 C 71.49 20.03 72.53 20.03 73.05 20.03 C 76.11 20.03 79.16 19.98 82.22 19.95 C 83.46 19.98 84.70 19.99 85.94 19.98 C 92.32 20.05 98.69 19.98 105.07 19.99 C 107.12 20.02 109.18 19.96 111.23 19.89 C 113.59 20.03 115.91 20.31 118.22 20.75 C 106.84 22.13 95.41 20.49 84.00 20.97 C 76.68 20.47 69.32 21.85 62.04 20.95 L 62.06 20.02 Z" />
<path fill="#414141" d=" M 4.74 22.93 C 5.80 22.22 6.95 20.09 8.00 21.99 C 9.09 23.74 11.49 23.01 11.52 20.94 C 11.82 22.58 10.74 24.79 12.48 25.82 C 13.39 24.63 14.14 23.13 15.77 22.84 C 16.02 23.41 16.53 24.55 16.79 25.12 C 17.88 26.32 19.27 27.24 20.25 28.54 C 17.47 27.89 14.95 29.67 13.28 31.72 C 12.41 29.84 11.89 29.66 11.94 32.03 C 12.03 34.45 9.45 31.84 9.06 30.89 C 10.14 29.67 11.62 28.75 12.16 27.14 C 8.66 28.91 5.63 26.37 4.74 22.93 Z" />
<path fill="#3a3a3a" d=" M 23.38 25.61 C 21.19 24.65 21.75 21.58 23.83 20.86 C 24.00 22.89 23.40 26.08 26.26 24.17 C 28.54 24.98 30.23 23.24 32.01 22.12 C 32.30 22.36 32.88 22.83 33.17 23.06 C 33.04 23.51 32.78 24.41 32.65 24.85 C 30.07 26.53 27.49 28.20 24.98 29.98 C 24.26 28.53 25.22 26.36 23.38 25.61 Z" />
<path fill="#e0e0e0" d=" M 33.17 23.06 C 33.91 22.22 34.64 21.35 35.65 20.83 C 43.93 22.48 52.48 20.72 60.85 21.77 C 65.30 21.63 60.12 25.99 59.80 28.23 C 55.26 29.15 50.59 28.27 46.01 28.93 C 41.47 28.61 33.82 31.21 32.65 24.85 C 32.78 24.41 33.04 23.51 33.17 23.06 Z" />
<path fill="#eaeaea" d=" M 60.85 21.77 C 61.15 21.56 61.74 21.16 62.04 20.95 C 69.32 21.85 76.68 20.47 84.00 20.97 C 95.41 20.49 106.84 22.13 118.22 20.75 C 119.17 21.10 120.10 21.50 121.00 21.95 C 120.99 24.02 120.81 26.08 120.35 28.10 L 119.38 28.32 C 115.99 27.90 111.81 29.23 109.31 26.38 C 107.96 29.32 103.87 27.77 101.26 27.91 C 101.15 27.19 100.94 25.75 100.83 25.03 C 98.48 26.03 101.48 32.06 94.99 28.09 C 94.41 28.26 93.26 28.58 92.68 28.75 L 91.84 29.10 C 93.41 31.38 95.76 32.91 98.01 34.45 C 98.80 35.06 99.63 35.64 100.47 36.20 C 100.77 36.44 101.36 36.90 101.66 37.14 C 101.95 37.37 102.53 37.84 102.82 38.07 C 105.11 39.86 107.38 41.70 109.87 43.23 C 110.35 43.51 111.30 44.09 111.78 44.38 C 112.08 44.57 112.69 44.96 112.99 45.15 C 113.75 46.72 115.31 47.43 116.83 48.08 C 124.27 54.82 133.07 59.81 140.83 66.15 C 140.98 67.42 141.07 68.69 141.09 69.97 C 136.09 73.46 130.57 76.40 126.50 81.04 C 121.81 84.09 116.89 86.97 112.93 90.98 C 112.70 91.21 112.24 91.65 112.02 91.88 C 109.17 93.44 106.56 95.36 103.93 97.25 C 104.94 92.74 102.09 90.50 98.98 93.04 C 100.77 94.34 102.39 95.80 102.40 98.20 C 101.93 98.46 100.97 98.97 100.49 99.23 C 99.86 96.77 97.21 96.10 95.20 95.11 C 94.76 96.71 94.32 98.32 93.95 99.94 C 95.89 98.28 98.29 97.34 100.49 99.23 C 96.81 100.65 94.06 103.73 92.15 107.11 C 91.61 109.09 90.45 111.05 89.08 108.46 C 92.19 107.82 90.54 103.63 89.33 102.01 C 88.80 103.84 88.14 105.63 87.27 107.33 C 84.31 107.52 86.18 104.47 85.39 102.77 C 85.28 102.09 85.06 100.71 84.95 100.03 C 88.58 97.27 92.63 95.09 96.11 92.13 C 98.49 90.22 102.13 88.67 101.98 85.07 C 100.70 81.96 98.78 78.55 95.25 77.70 C 91.45 77.04 87.61 76.88 83.73 77.22 C 81.88 77.07 80.03 77.01 78.18 77.04 C 76.36 77.03 74.54 77.02 72.72 77.06 C 74.23 76.05 74.35 74.00 72.84 72.92 C 71.89 71.80 70.46 71.23 69.23 70.46 C 68.21 69.85 67.17 69.26 66.11 68.72 L 65.87 67.84 C 68.80 67.19 71.81 67.36 74.57 68.49 C 75.64 66.43 76.80 67.60 77.97 68.86 C 80.65 66.07 85.12 68.04 88.22 66.21 C 89.11 65.56 90.65 64.60 89.67 63.32 C 87.49 59.29 85.24 55.30 82.96 51.32 C 86.53 50.47 83.00 46.07 80.81 48.06 C 79.73 46.44 78.89 44.68 77.78 43.08 C 75.32 42.70 74.79 45.86 73.29 47.21 C 72.45 47.18 70.78 47.10 69.94 47.06 C 70.32 48.48 70.85 49.84 71.31 51.24 C 69.89 54.01 68.11 56.58 66.48 59.23 C 65.96 57.11 65.33 54.93 63.92 53.22 C 62.64 53.49 61.38 53.84 60.13 54.21 C 59.99 55.80 60.07 57.39 60.14 58.99 C 58.49 61.23 58.68 55.34 56.88 54.50 C 58.10 51.98 59.45 49.53 60.90 47.14 C 63.07 47.57 65.75 46.87 65.36 50.08 C 67.46 49.12 65.35 46.25 67.69 45.68 C 66.76 44.74 65.71 43.90 65.02 42.76 C 66.63 43.18 68.22 43.65 69.85 44.02 C 69.50 42.68 69.14 41.35 68.75 40.02 C 67.13 40.14 65.82 41.19 64.47 41.98 L 63.83 41.63 C 63.82 41.20 63.79 40.34 63.78 39.91 C 58.86 42.24 54.79 46.22 50.17 49.16 C 48.54 49.48 46.92 49.87 45.26 49.98 C 45.21 48.86 45.23 47.74 45.17 46.63 C 46.17 43.68 47.92 47.80 49.99 47.14 C 48.92 45.29 47.74 43.51 46.62 41.69 C 51.50 37.26 57.81 34.56 61.97 29.35 C 61.43 29.07 60.34 28.51 59.80 28.23 C 60.12 25.99 65.30 21.63 60.85 21.77 Z" />
<path fill="#282828" d=" M 146.11 22.20 C 148.03 22.78 150.22 22.83 151.83 24.15 C 151.66 25.56 150.72 27.42 153.00 27.32 L 153.00 56.31 C 149.59 56.39 151.90 52.85 151.90 50.89 C 148.43 51.92 143.05 52.10 145.92 58.09 C 144.23 54.35 140.78 59.06 138.28 59.78 C 138.22 55.01 131.79 53.98 133.59 48.53 C 131.68 48.12 130.81 46.73 130.49 44.88 C 129.98 46.13 129.66 47.44 129.32 48.73 C 127.66 50.59 125.23 49.31 123.23 48.91 C 123.38 47.26 126.63 47.76 127.94 46.79 C 128.27 42.17 122.81 38.74 124.95 33.89 C 125.00 31.60 126.86 34.94 127.61 35.40 C 131.12 37.18 126.14 44.88 130.88 44.00 C 129.42 41.21 131.72 39.34 132.84 37.01 L 133.27 35.95 C 135.50 36.99 134.35 39.25 134.14 41.11 C 135.16 41.05 136.01 40.65 136.70 39.92 C 135.66 36.74 135.51 33.42 135.21 30.12 C 139.39 29.34 142.86 26.78 146.49 24.64 C 146.37 23.83 146.25 23.01 146.11 22.20 Z" />
<path fill="#535353" d=" M 0.00 26.25 C 1.60 25.58 2.90 24.41 4.24 23.34 C 3.28 25.79 2.14 28.18 1.81 30.82 C 0.36 30.50 0.82 27.91 0.00 26.74 L 0.00 26.25 Z" />
<path fill="#2d2d2d" d=" M 4.24 23.34 L 4.74 22.93 C 5.63 26.37 8.66 28.91 12.16 27.14 C 11.62 28.75 10.14 29.67 9.06 30.89 C 6.89 32.10 4.66 33.56 2.08 33.50 C 2.35 34.64 2.73 35.74 3.02 36.87 C 2.01 36.54 1.00 36.20 0.00 35.85 L 0.00 26.74 C 0.82 27.91 0.36 30.50 1.81 30.82 C 2.14 28.18 3.28 25.79 4.24 23.34 Z" />
<path fill="#c2c2c2" d=" M 94.99 28.09 C 101.48 32.06 98.48 26.03 100.83 25.03 C 100.94 25.75 101.15 27.19 101.26 27.91 C 103.87 27.77 107.96 29.32 109.31 26.38 C 111.81 29.23 115.99 27.90 119.38 28.32 C 117.97 28.70 116.53 28.92 115.09 29.10 C 113.74 29.06 112.40 29.04 111.06 29.04 C 108.37 29.00 105.69 28.99 103.01 28.99 C 102.27 28.99 100.79 28.98 100.05 28.98 C 98.21 28.92 94.52 28.80 92.68 28.75 C 93.26 28.58 94.41 28.26 94.99 28.09 Z" />
<path fill="#424242" d=" M 145.18 27.14 C 147.09 26.32 147.30 28.37 147.78 29.68 C 146.66 30.18 146.02 31.20 145.17 32.01 C 145.15 30.39 143.36 28.28 145.18 27.14 Z" />
<path fill="#464646" d=" M 6.35 28.25 C 8.72 29.30 3.35 32.56 2.96 30.05 C 3.21 28.45 5.30 28.96 6.35 28.25 Z" />
<path fill="#515151" d=" M 119.38 28.32 L 120.35 28.10 C 121.08 32.12 115.43 34.74 117.88 39.01 C 115.13 39.77 116.31 36.43 115.84 34.86 C 113.83 37.17 114.59 40.95 114.93 43.85 C 114.14 43.99 112.57 44.25 111.78 44.38 C 111.30 44.09 110.35 43.51 109.87 43.23 C 110.93 42.62 112.00 42.02 113.03 41.36 C 111.95 41.22 110.96 40.88 110.08 40.35 C 110.50 38.60 110.79 36.83 111.15 35.08 C 111.38 34.10 111.22 33.10 111.26 32.11 C 112.48 32.34 113.67 32.70 114.89 32.93 C 114.98 31.65 115.05 30.38 115.09 29.10 C 116.53 28.92 117.97 28.70 119.38 28.32 Z" />
<path fill="#4d4d4d" d=" M 91.84 29.10 L 92.68 28.75 C 94.52 28.80 98.21 28.92 100.05 28.98 C 98.66 30.51 98.17 32.44 98.01 34.45 C 95.76 32.91 93.41 31.38 91.84 29.10 Z" />
<path fill="#606060" d=" M 100.05 28.98 C 100.79 28.98 102.27 28.99 103.01 28.99 C 103.34 29.90 103.65 30.81 103.94 31.74 C 102.52 33.00 101.11 34.36 100.47 36.20 C 99.63 35.64 98.80 35.06 98.01 34.45 C 98.17 32.44 98.66 30.51 100.05 28.98 Z" />
<path fill="#4c4c4c" d=" M 103.01 28.99 C 105.69 28.99 108.37 29.00 111.06 29.04 C 110.31 30.17 110.41 35.70 108.98 32.80 C 108.31 31.38 107.11 33.85 106.28 34.19 L 105.37 34.25 C 105.01 33.62 104.30 32.36 103.94 31.74 C 103.65 30.81 103.34 29.90 103.01 28.99 Z" />
<path fill="#404040" d=" M 111.06 29.04 C 112.40 29.04 113.74 29.06 115.09 29.10 C 115.05 30.38 114.98 31.65 114.89 32.93 C 113.67 32.70 112.48 32.34 111.26 32.11 C 111.22 33.10 111.38 34.10 111.15 35.08 C 107.21 34.72 107.63 38.55 110.08 40.35 C 110.96 40.88 111.95 41.22 113.03 41.36 C 112.00 42.02 110.93 42.62 109.87 43.23 C 107.38 41.70 105.11 39.86 102.82 38.07 C 104.18 36.98 105.63 35.87 106.28 34.19 C 107.11 33.85 108.31 31.38 108.98 32.80 C 110.41 35.70 110.31 30.17 111.06 29.04 Z" />
<path fill="#3b3b3b" d=" M 2.08 33.50 C 4.66 33.56 6.89 32.10 9.06 30.89 C 7.80 34.67 2.19 37.64 5.10 42.01 C 8.05 41.58 4.70 36.96 8.03 37.03 C 10.29 36.53 10.36 39.33 11.42 40.63 C 18.90 38.41 14.67 42.27 14.51 44.72 C 16.13 49.05 11.34 49.85 9.53 52.77 C 5.08 51.30 8.19 46.04 5.28 43.97 C 3.40 40.85 1.14 42.67 0.00 45.27 L 0.00 35.85 C 1.00 36.20 2.01 36.54 3.02 36.87 C 2.73 35.74 2.35 34.64 2.08 33.50 Z" />
<path fill="#3e3e3e" d=" M 19.20 31.11 C 20.86 30.50 22.36 32.16 21.95 33.77 C 20.60 34.12 19.26 34.49 17.92 34.86 C 17.98 33.49 17.85 31.93 19.20 31.11 Z" />
<path fill="#c5c5c5" d=" M 66.34 31.38 C 66.78 31.27 67.65 31.04 68.08 30.93 C 66.83 32.90 64.64 34.31 64.84 36.93 C 63.32 36.83 63.88 34.40 63.33 33.27 C 64.34 32.64 65.33 32.00 66.34 31.38 Z" />
<path fill="#4e4e4e" d=" M 130.13 30.78 C 132.97 30.91 133.19 33.75 133.27 35.95 L 132.84 37.01 C 132.04 34.89 131.16 32.81 130.13 30.78 Z" />
<path fill="#323232" d=" M 100.47 36.20 C 101.11 34.36 102.52 33.00 103.94 31.74 C 104.30 32.36 105.01 33.62 105.37 34.25 C 103.39 34.03 102.48 35.60 101.66 37.14 C 101.36 36.90 100.77 36.44 100.47 36.20 Z" />
<path fill="#626262" d=" M 101.66 37.14 C 102.48 35.60 103.39 34.03 105.37 34.25 L 106.28 34.19 C 105.63 35.87 104.18 36.98 102.82 38.07 C 102.53 37.84 101.95 37.37 101.66 37.14 Z" />
<path fill="#2c2c2c" d=" M 110.08 40.35 C 107.63 38.55 107.21 34.72 111.15 35.08 C 110.79 36.83 110.50 38.60 110.08 40.35 Z" />
<path fill="#c7c7c7" d=" M 60.19 36.00 C 61.42 36.55 62.25 37.72 63.05 38.75 C 61.66 39.09 60.27 39.46 58.88 39.85 C 59.22 38.53 59.72 37.27 60.19 36.00 Z" />
<path fill="#404040" d=" M 147.24 37.29 L 147.90 36.83 C 147.92 38.39 147.97 41.49 147.99 43.05 C 148.16 45.90 148.97 41.72 150.06 41.95 C 149.95 43.64 150.56 46.74 148.14 46.91 C 145.98 44.61 147.11 41.01 146.10 38.18 C 146.39 37.96 146.95 37.52 147.24 37.29 Z" />
<path fill="#c5c5c5" d=" M 87.26 40.98 C 86.55 39.43 90.15 37.88 90.04 39.96 C 90.26 40.95 90.49 41.93 90.73 42.91 C 88.77 42.97 88.30 45.07 86.98 46.11 C 87.11 44.40 87.58 42.70 87.26 40.98 Z" />
<path fill="#b5b5b5" d=" M 53.20 40.35 C 54.75 40.85 57.56 40.45 57.09 42.85 C 53.97 40.81 53.28 44.98 49.94 44.91 C 49.34 42.47 51.07 41.02 53.20 40.35 Z" />
<path fill="#323232" d=" M 50.17 49.16 C 54.79 46.22 58.86 42.24 63.78 39.91 C 63.79 40.34 63.82 41.20 63.83 41.63 C 62.81 43.44 61.86 45.29 60.90 47.14 C 59.45 49.53 58.10 51.98 56.88 54.50 C 52.64 60.10 49.82 66.56 46.07 72.46 C 45.01 71.90 44.26 70.71 43.09 70.41 C 42.28 72.37 43.32 74.04 45.40 74.02 C 44.73 75.66 43.71 77.27 42.17 78.22 C 40.83 78.08 39.50 77.90 38.16 77.71 C 35.16 75.32 31.96 73.22 28.84 71.00 C 28.17 70.24 27.47 69.50 26.76 68.78 C 26.85 68.40 27.04 67.64 27.14 67.26 C 27.75 66.62 28.36 65.98 28.97 65.34 C 30.59 63.87 32.28 62.47 34.02 61.13 C 37.18 58.63 40.72 56.69 44.01 54.38 C 46.23 52.84 48.19 50.98 50.17 49.16 Z" />
<path fill="#a7a7a7" d=" M 64.47 41.98 C 65.82 41.19 67.13 40.14 68.75 40.02 C 69.14 41.35 69.50 42.68 69.85 44.02 C 68.22 43.65 66.63 43.18 65.02 42.76 L 64.47 41.98 Z" />
<path fill="#4d4d4d" d=" M 90.04 39.96 C 91.38 40.81 93.50 41.17 94.03 42.84 C 93.44 43.05 92.27 43.48 91.69 43.69 C 91.45 43.50 90.97 43.11 90.73 42.91 C 90.49 41.93 90.26 40.95 90.04 39.96 Z" />
<path fill="#313131" d=" M 0.00 45.27 C 1.14 42.67 3.40 40.85 5.28 43.97 C 4.13 47.36 1.65 50.27 1.75 54.07 C 1.15 53.30 0.57 52.53 0.00 51.74 L 0.00 45.27 Z" />
<path fill="#a2a2a2" d=" M 40.70 45.84 C 42.54 44.27 44.54 42.91 46.62 41.69 C 47.74 43.51 48.92 45.29 49.99 47.14 C 47.92 47.80 46.17 43.68 45.17 46.63 C 43.68 46.34 42.19 46.07 40.70 45.84 Z" />
<path fill="#bfbfbf" d=" M 60.90 47.14 C 61.86 45.29 62.81 43.44 63.83 41.63 L 64.47 41.98 L 65.02 42.76 C 65.71 43.90 66.76 44.74 67.69 45.68 C 65.35 46.25 67.46 49.12 65.36 50.08 C 65.75 46.87 63.07 47.57 60.90 47.14 Z" />
<path fill="#444444" d=" M 25.23 43.27 C 27.22 40.74 30.59 46.81 27.38 45.73 C 27.29 43.70 24.10 45.50 25.23 43.27 Z" />
<path fill="#323232" d=" M 73.29 47.21 C 74.79 45.86 75.32 42.70 77.78 43.08 C 78.89 44.68 79.73 46.44 80.81 48.06 C 81.50 49.16 82.22 50.25 82.96 51.32 C 85.24 55.30 87.49 59.29 89.67 63.32 C 90.65 64.60 89.11 65.56 88.22 66.21 C 80.48 65.97 72.74 66.00 65.01 66.00 C 64.03 64.72 64.16 63.35 65.09 62.10 C 65.58 61.15 66.04 60.19 66.48 59.23 C 68.11 56.58 69.89 54.01 71.31 51.24 C 72.01 49.92 72.66 48.57 73.29 47.21 Z" />
<path fill="#373737" d=" M 91.69 43.69 C 92.27 43.48 93.44 43.05 94.03 42.84 C 98.63 45.16 102.56 49.14 106.90 52.10 C 106.95 53.71 106.96 55.31 107.04 56.92 C 108.31 56.22 109.54 55.45 110.84 54.81 C 114.33 57.10 117.34 60.08 120.92 62.27 C 123.10 63.69 125.04 65.44 126.97 67.18 C 125.91 71.45 121.26 73.76 117.83 76.19 C 116.57 75.39 115.40 74.46 114.04 73.85 C 114.28 75.19 114.64 76.51 114.96 77.84 C 114.18 78.99 112.79 79.18 112.15 77.80 C 113.31 76.18 110.78 73.62 109.19 74.89 C 103.50 64.44 96.98 54.29 91.69 43.69 Z" />
<path fill="#252525" d=" M 5.28 43.97 C 8.19 46.04 5.08 51.30 9.53 52.77 C 11.34 49.85 16.13 49.05 14.51 44.72 C 15.68 45.61 16.69 46.67 17.73 47.72 C 18.21 46.80 18.70 45.90 19.22 45.01 C 21.71 45.66 20.61 48.10 20.39 49.93 C 23.63 50.50 23.84 54.68 27.23 55.41 C 25.11 57.17 23.00 58.95 20.91 60.74 C 17.69 62.94 11.65 64.75 13.15 69.76 C 13.52 70.08 14.25 70.72 14.62 71.04 C 15.15 71.41 16.21 72.17 16.74 72.54 C 17.84 73.36 18.93 74.19 20.10 74.91 C 21.65 75.90 23.22 76.87 24.71 77.95 L 24.97 78.77 C 25.14 80.64 27.12 83.46 24.84 84.66 C 23.22 86.06 24.97 81.53 23.05 81.95 C 23.00 83.29 22.96 84.62 22.91 85.96 C 22.02 85.78 19.59 82.82 19.96 84.94 C 19.19 87.77 22.43 86.76 24.12 87.22 C 23.78 88.38 22.84 89.13 22.03 89.95 C 22.81 90.01 24.37 90.14 25.15 90.20 C 23.89 91.32 18.86 92.78 22.98 93.34 C 22.39 94.57 21.28 94.72 20.08 94.38 C 20.77 96.85 21.99 100.00 18.06 99.03 C 18.61 97.81 19.08 96.52 18.99 95.16 C 16.39 94.24 11.31 95.86 13.76 90.10 C 11.09 89.08 12.56 91.71 12.76 93.15 C 12.28 91.90 11.32 89.41 10.84 88.17 L 9.99 87.90 C 10.00 89.44 10.01 92.52 10.02 94.06 C 8.93 93.01 7.70 92.13 6.36 91.43 C 5.98 92.85 5.33 92.57 4.60 91.57 C 2.96 92.08 1.62 93.13 1.15 94.85 C 0.87 95.49 0.29 96.76 0.00 97.40 L 0.00 51.74 C 0.57 52.53 1.15 53.30 1.75 54.07 C 1.65 50.27 4.13 47.36 5.28 43.97 Z" />
<path fill="#535353" d=" M 112.99 45.15 C 115.08 44.20 117.62 45.62 116.83 48.08 C 115.31 47.43 113.75 46.72 112.99 45.15 Z" />
<path fill="#efefef" d=" M 38.93 47.09 C 39.37 46.78 40.26 46.15 40.70 45.84 C 40.92 47.30 42.14 49.04 40.97 50.37 C 39.97 49.51 38.79 48.57 38.93 47.09 Z" />
<path fill="#bfbfbf" d=" M 40.70 45.84 C 42.19 46.07 43.68 46.34 45.17 46.63 C 45.23 47.74 45.21 48.86 45.26 49.98 C 46.92 49.87 48.54 49.48 50.17 49.16 C 48.19 50.98 46.23 52.84 44.01 54.38 C 42.84 53.16 41.88 51.78 40.97 50.37 C 42.14 49.04 40.92 47.30 40.70 45.84 Z" />
<path fill="#c6c6c6" d=" M 88.95 46.01 C 91.82 45.13 90.84 48.64 91.61 50.31 C 92.60 52.22 90.19 53.14 88.99 54.10 C 90.31 51.41 89.44 48.75 88.95 46.01 Z" />
<path fill="#a7a7a7" d=" M 37.11 48.53 C 37.70 48.03 38.31 47.55 38.93 47.09 C 38.79 48.57 39.97 49.51 40.97 50.37 C 41.88 51.78 42.84 53.16 44.01 54.38 C 40.72 56.69 37.18 58.63 34.02 61.13 C 33.18 58.56 31.71 55.73 33.07 53.08 C 34.67 54.10 36.53 57.83 37.67 54.00 C 38.34 54.35 40.47 57.61 40.01 55.10 C 41.11 52.89 37.54 48.83 37.80 53.11 C 34.36 53.40 38.49 50.24 37.11 48.53 Z" />
<path fill="#c1c1c1" d=" M 69.94 47.06 C 70.78 47.10 72.45 47.18 73.29 47.21 C 72.66 48.57 72.01 49.92 71.31 51.24 C 70.85 49.84 70.32 48.48 69.94 47.06 Z" />
<path fill="#c5c5c5" d=" M 80.81 48.06 C 83.00 46.07 86.53 50.47 82.96 51.32 C 82.22 50.25 81.50 49.16 80.81 48.06 Z" />
<path fill="#d1d1d1" d=" M 27.23 55.41 C 30.81 53.56 33.90 50.94 37.11 48.53 C 38.49 50.24 34.36 53.40 37.80 53.11 L 37.67 54.00 C 36.53 57.83 34.67 54.10 33.07 53.08 C 31.71 55.73 33.18 58.56 34.02 61.13 C 32.28 62.47 30.59 63.87 28.97 65.34 C 28.37 63.34 28.09 59.24 26.35 62.91 C 25.47 61.82 24.13 63.01 23.13 63.20 C 20.35 72.00 23.54 67.73 25.17 66.04 C 25.66 66.34 26.65 66.95 27.14 67.26 C 27.04 67.64 26.85 68.40 26.76 68.78 C 25.56 69.03 24.93 69.77 24.87 71.01 C 23.21 71.89 21.40 72.62 21.95 69.83 C 22.49 67.71 20.80 67.84 19.26 68.08 C 18.85 69.90 19.32 72.46 16.74 72.54 C 16.21 72.17 15.15 71.41 14.62 71.04 C 15.43 67.73 20.15 68.08 21.03 64.87 C 21.57 63.24 24.42 60.30 20.91 60.74 C 23.00 58.95 25.11 57.17 27.23 55.41 Z" />
<path fill="#afafaf" d=" M 112.19 50.15 C 113.24 49.37 115.90 50.06 114.81 51.70 C 113.51 53.06 109.39 51.77 112.19 50.15 Z" />
<path fill="#f1f1f1" d=" M 37.80 53.11 C 37.54 48.83 41.11 52.89 40.01 55.10 C 40.47 57.61 38.34 54.35 37.67 54.00 L 37.80 53.11 Z" />
<path fill="#5e5e5e" d=" M 106.90 52.10 C 108.13 53.02 110.34 53.34 110.84 54.81 C 109.54 55.45 108.31 56.22 107.04 56.92 C 106.96 55.31 106.95 53.71 106.90 52.10 Z" />
<path fill="#c3c3c3" d=" M 60.13 54.21 C 61.38 53.84 62.64 53.49 63.92 53.22 C 65.33 54.93 65.96 57.11 66.48 59.23 C 66.04 60.19 65.58 61.15 65.09 62.10 C 65.08 61.34 65.04 59.84 65.02 59.09 C 63.31 60.52 61.57 61.08 60.14 58.99 C 60.07 57.39 59.99 55.80 60.13 54.21 Z" />
<path fill="#e0e0e0" d=" M 46.07 72.46 C 49.82 66.56 52.64 60.10 56.88 54.50 C 58.68 55.34 58.49 61.23 60.14 58.99 C 61.57 61.08 63.31 60.52 65.02 59.09 C 65.04 59.84 65.08 61.34 65.09 62.10 C 64.16 63.35 64.03 64.72 65.01 66.00 C 65.22 66.46 65.66 67.38 65.87 67.84 L 66.11 68.72 L 65.10 68.68 C 63.95 66.07 61.04 68.29 60.32 69.86 C 62.01 70.50 63.59 69.26 65.10 68.68 C 64.72 70.16 64.30 71.63 64.01 73.13 C 65.74 72.21 67.34 71.04 69.23 70.46 C 70.46 71.23 71.89 71.80 72.84 72.92 C 72.11 74.17 71.61 75.54 71.05 76.87 C 67.03 77.51 62.57 76.10 58.71 77.72 C 54.38 79.12 50.49 84.48 53.11 88.89 C 53.57 90.57 53.45 92.28 52.70 93.86 C 52.33 94.90 52.00 95.95 51.69 97.01 L 50.72 97.25 C 48.10 95.24 45.18 93.62 42.77 91.34 C 43.28 89.16 42.99 86.94 40.77 85.92 L 41.15 85.32 C 41.68 84.56 41.68 83.74 41.16 82.87 C 41.06 81.93 40.74 81.10 40.21 80.39 C 37.83 78.91 41.06 78.92 42.17 78.22 C 43.71 77.27 44.73 75.66 45.40 74.02 C 45.57 73.63 45.90 72.85 46.07 72.46 Z" />
<path fill="#5f5f5f" d=" M 40.27 59.28 C 41.22 59.84 42.03 62.26 41.39 63.43 C 39.73 67.05 39.38 60.51 40.27 59.28 Z" />
<path fill="#cbcbcb" d=" M 120.92 62.27 C 123.10 62.90 125.07 57.09 125.64 59.65 C 124.20 62.23 127.88 64.39 126.97 67.18 C 125.04 65.44 123.10 63.69 120.92 62.27 Z" />
<path fill="#bababa" d=" M 125.64 59.65 C 128.28 59.90 129.52 62.81 130.07 65.07 C 127.76 64.16 126.80 61.65 125.64 59.65 Z" />
<path fill="#a3a3a3" d=" M 13.15 69.76 C 11.65 64.75 17.69 62.94 20.91 60.74 C 24.42 60.30 21.57 63.24 21.03 64.87 C 20.15 68.08 15.43 67.73 14.62 71.04 C 14.25 70.72 13.52 70.08 13.15 69.76 Z" />
<path fill="#aeaeae" d=" M 26.35 62.91 C 28.09 59.24 28.37 63.34 28.97 65.34 C 28.36 65.98 27.75 66.62 27.14 67.26 C 26.65 66.95 25.66 66.34 25.17 66.04 C 25.57 65.00 25.96 63.95 26.35 62.91 Z" />
<path fill="#2b2b2b" d=" M 145.35 64.69 C 147.60 63.14 150.10 61.29 153.00 61.68 L 153.00 68.55 C 151.27 69.49 146.66 72.89 151.09 73.27 C 150.96 75.21 149.61 77.51 151.30 79.14 C 149.75 81.44 148.84 78.18 147.73 77.16 C 144.41 78.49 142.22 81.34 139.94 83.95 C 140.92 83.72 141.90 83.50 142.88 83.27 C 142.85 88.27 140.91 93.84 143.82 98.22 C 143.82 93.71 144.08 88.98 146.08 84.84 C 147.93 87.28 148.50 90.48 150.08 93.10 C 151.63 93.19 152.26 91.83 153.00 90.75 L 153.00 114.58 C 148.59 115.86 154.93 123.85 150.26 122.94 C 150.47 121.39 150.31 119.94 149.13 118.82 C 149.45 115.68 150.73 112.73 151.87 109.82 C 148.62 110.16 149.84 114.91 147.00 116.17 C 147.51 113.25 148.79 110.55 149.89 107.83 C 148.08 107.72 147.21 109.36 146.84 110.88 C 145.90 113.80 144.71 116.66 143.00 119.21 C 142.57 117.15 145.27 112.75 141.44 114.04 C 141.37 116.63 141.21 119.25 141.92 121.79 C 141.46 121.64 140.52 121.36 140.06 121.21 C 141.22 123.84 140.01 129.22 136.45 128.43 C 136.06 129.32 135.58 130.15 135.00 130.91 C 134.98 130.19 134.94 128.73 134.91 128.00 C 131.52 128.57 128.00 129.20 125.72 132.00 L 124.12 132.00 C 125.30 130.04 124.46 127.88 124.12 125.82 C 125.38 126.71 128.46 129.34 128.65 126.42 C 126.09 125.70 128.97 123.61 129.14 122.08 C 130.57 119.03 128.21 116.06 124.99 115.92 C 121.48 114.87 129.15 109.81 124.04 111.77 C 124.12 111.33 124.29 110.45 124.38 110.02 C 124.94 107.84 125.26 105.20 127.60 104.18 C 129.27 106.22 130.79 108.42 132.81 110.16 C 132.90 108.74 132.99 107.31 133.09 105.89 C 134.79 106.02 133.20 109.47 135.02 108.78 C 136.23 108.18 140.26 108.56 138.37 106.54 C 136.42 104.76 138.12 102.14 138.14 99.95 C 139.13 102.82 140.48 101.18 140.95 99.06 C 139.34 98.02 135.11 99.61 136.25 96.27 C 136.73 93.01 140.34 98.66 140.04 96.03 C 140.27 92.04 135.88 93.96 133.90 95.08 C 134.23 92.98 135.94 91.57 137.02 89.85 C 135.70 90.39 134.46 91.11 133.19 91.74 C 132.88 90.78 132.57 89.82 132.26 88.86 C 131.84 86.19 132.64 83.60 133.03 80.98 C 132.55 81.03 131.61 81.12 131.14 81.16 C 129.58 81.28 127.95 81.91 126.50 81.04 C 130.57 76.40 136.09 73.46 141.09 69.97 C 144.54 69.43 139.87 63.93 143.88 65.69 C 143.94 63.62 144.13 62.19 145.35 64.69 Z" />
<path fill="#999999" d=" M 23.13 63.20 C 24.13 63.01 25.47 61.82 26.35 62.91 C 25.96 63.95 25.57 65.00 25.17 66.04 C 23.54 67.73 20.35 72.00 23.13 63.20 Z" />
<path fill="#cbcbcb" d=" M 59.14 63.13 C 61.17 64.34 63.25 68.31 59.12 68.12 C 59.82 66.78 60.11 65.65 58.13 65.81 C 58.45 64.91 58.78 64.01 59.14 63.13 Z" />
<path fill="#565656" d=" M 113.30 65.28 C 114.86 65.64 114.61 72.86 112.31 69.90 C 112.64 68.42 112.88 66.79 113.30 65.28 Z" />
<path fill="#acacac" d=" M 65.01 66.00 C 72.74 66.00 80.48 65.97 88.22 66.21 C 85.12 68.04 80.65 66.07 77.97 68.86 C 76.80 67.60 75.64 66.43 74.57 68.49 C 71.81 67.36 68.80 67.19 65.87 67.84 C 65.66 67.38 65.22 66.46 65.01 66.00 Z" />
<path fill="#b9b9b9" d=" M 130.18 66.01 C 131.63 66.49 131.53 68.63 132.12 69.86 C 130.56 69.09 127.47 69.63 127.92 67.11 C 129.33 67.91 130.36 68.03 130.18 66.01 Z" />
<path fill="#4c4c4c" d=" M 39.03 66.89 C 42.14 67.90 40.76 71.63 40.98 74.09 C 38.64 72.75 38.94 69.28 39.03 66.89 Z" />
<path fill="#b2b2b2" d=" M 60.32 69.86 C 61.04 68.29 63.95 66.07 65.10 68.68 C 63.59 69.26 62.01 70.50 60.32 69.86 Z" />
<path fill="#a4a4a4" d=" M 19.26 68.08 C 20.80 67.84 22.49 67.71 21.95 69.83 C 19.32 69.88 20.95 73.25 20.10 74.91 C 18.93 74.19 17.84 73.36 16.74 72.54 C 19.32 72.46 18.85 69.90 19.26 68.08 Z" />
<path fill="#a8a8a8" d=" M 24.87 71.01 C 24.93 69.77 25.56 69.03 26.76 68.78 C 27.47 69.50 28.17 70.24 28.84 71.00 C 27.54 71.51 26.08 72.03 24.87 71.01 Z" />
<path fill="#afafaf" d=" M 65.10 68.68 L 66.11 68.72 C 67.17 69.26 68.21 69.85 69.23 70.46 C 67.34 71.04 65.74 72.21 64.01 73.13 C 64.30 71.63 64.72 70.16 65.10 68.68 Z" />
<path fill="#3b3b3b" d=" M 151.09 73.27 C 146.66 72.89 151.27 69.49 153.00 68.55 L 153.00 90.75 C 152.26 91.83 151.63 93.19 150.08 93.10 C 148.50 90.48 147.93 87.28 146.08 84.84 C 144.08 88.98 143.82 93.71 143.82 98.22 C 140.91 93.84 142.85 88.27 142.88 83.27 C 141.90 83.50 140.92 83.72 139.94 83.95 C 142.22 81.34 144.41 78.49 147.73 77.16 C 148.84 78.18 149.75 81.44 151.30 79.14 C 153.32 76.42 153.25 74.46 151.09 73.27 Z" />
<path fill="#dbdbdb" d=" M 20.10 74.91 C 20.95 73.25 19.32 69.88 21.95 69.83 C 21.40 72.62 23.21 71.89 24.87 71.01 C 26.08 72.03 27.54 71.51 28.84 71.00 C 31.96 73.22 35.16 75.32 38.16 77.71 C 33.56 77.70 37.61 82.06 40.21 80.39 C 40.74 81.10 41.06 81.93 41.16 82.87 C 40.07 82.78 37.06 82.85 38.24 84.68 C 38.97 84.84 40.42 85.16 41.15 85.32 L 40.77 85.92 C 39.83 86.69 38.90 87.46 37.94 88.21 C 35.64 86.45 33.22 84.86 30.91 83.12 C 30.95 81.74 30.95 80.36 30.93 78.98 C 29.57 79.29 28.24 79.74 26.90 80.12 C 26.58 79.89 25.93 79.42 25.60 79.19 C 27.66 77.98 29.57 75.69 32.20 76.59 C 31.31 71.68 26.36 75.54 24.71 77.95 C 23.22 76.87 21.65 75.90 20.10 74.91 Z" />
<path fill="#515151" d=" M 43.09 70.41 C 44.26 70.71 45.01 71.90 46.07 72.46 C 45.90 72.85 45.57 73.63 45.40 74.02 C 43.32 74.04 42.28 72.37 43.09 70.41 Z" />
<path fill="#3c3c3c" d=" M 144.28 70.34 C 146.51 68.93 146.01 71.43 146.04 72.90 C 144.60 72.04 143.63 72.03 143.78 74.04 C 141.33 73.27 141.62 70.36 144.28 70.34 Z" />
<path fill="#a1a1a1" d=" M 56.30 71.34 C 59.14 72.20 57.09 76.53 54.35 74.81 C 54.89 73.76 56.25 72.89 56.30 71.34 Z" />
<path fill="#a8a8a8" d=" M 71.05 76.87 C 71.61 75.54 72.11 74.17 72.84 72.92 C 74.35 74.00 74.23 76.05 72.72 77.06 L 71.73 77.17 L 71.05 76.87 Z" />
<path fill="#565656" d=" M 151.09 73.27 C 153.25 74.46 153.32 76.42 151.30 79.14 C 149.61 77.51 150.96 75.21 151.09 73.27 Z" />
<path fill="#a6a6a6" d=" M 24.71 77.95 C 26.36 75.54 31.31 71.68 32.20 76.59 C 29.57 75.69 27.66 77.98 25.60 79.19 L 24.97 78.77 L 24.71 77.95 Z" />
<path fill="#545454" d=" M 109.19 74.89 C 110.78 73.62 113.31 76.18 112.15 77.80 C 110.72 77.90 109.11 76.32 109.19 74.89 Z" />
<path fill="#5f5f5f" d=" M 114.04 73.85 C 115.40 74.46 116.57 75.39 117.83 76.19 C 118.23 77.61 115.78 77.25 114.96 77.84 C 114.64 76.51 114.28 75.19 114.04 73.85 Z" />
<path fill="#656565" d=" M 58.71 77.72 C 62.57 76.10 67.03 77.51 71.05 76.87 L 71.73 77.17 L 72.21 77.84 C 67.71 77.92 63.21 77.91 58.71 77.72 Z" />
<path fill="#494949" d=" M 71.73 77.17 L 72.72 77.06 C 74.54 77.02 76.36 77.03 78.18 77.04 C 76.62 77.83 75.07 78.67 74.08 80.17 C 73.45 79.39 72.83 78.62 72.21 77.84 L 71.73 77.17 Z" />
<path fill="#232323" d=" M 78.18 77.04 C 80.03 77.01 81.88 77.07 83.73 77.22 C 85.17 77.69 86.65 77.99 88.14 78.21 C 87.45 78.87 86.76 79.52 86.06 80.16 C 84.02 81.41 81.84 83.10 79.33 82.86 C 78.46 81.75 78.58 79.42 77.03 79.14 C 75.45 81.70 78.39 83.57 79.42 85.67 C 80.66 85.61 81.86 85.29 83.08 85.13 C 81.75 86.87 81.05 91.74 79.01 88.01 C 78.25 90.21 75.30 94.27 78.80 95.38 C 77.97 96.24 77.11 97.08 76.20 97.87 C 74.98 96.19 72.86 94.63 73.49 92.30 C 74.77 89.98 77.00 88.05 77.18 85.25 C 76.25 85.48 75.31 85.70 74.38 85.91 C 74.36 83.99 74.52 82.05 74.08 80.17 C 75.07 78.67 76.62 77.83 78.18 77.04 Z" />
<path fill="#6c6c6c" d=" M 83.73 77.22 C 87.61 76.88 91.45 77.04 95.25 77.70 C 94.48 77.79 92.95 77.97 92.19 78.06 C 90.84 78.10 89.49 78.15 88.14 78.21 C 86.65 77.99 85.17 77.69 83.73 77.22 Z" />
<path fill="#8f8f8f" d=" M 40.21 80.39 C 37.61 82.06 33.56 77.70 38.16 77.71 C 39.50 77.90 40.83 78.08 42.17 78.22 C 41.06 78.92 37.83 78.91 40.21 80.39 Z" />
<path fill="#323232" d=" M 53.11 88.89 C 50.49 84.48 54.38 79.12 58.71 77.72 C 63.21 77.91 67.71 77.92 72.21 77.84 C 72.83 78.62 73.45 79.39 74.08 80.17 C 74.52 82.05 74.36 83.99 74.38 85.91 C 75.31 85.70 76.25 85.48 77.18 85.25 C 77.00 88.05 74.77 89.98 73.49 92.30 C 72.86 94.63 74.98 96.19 76.20 97.87 C 77.11 97.08 77.97 96.24 78.80 95.38 C 75.30 94.27 78.25 90.21 79.01 88.01 C 81.05 91.74 81.75 86.87 83.08 85.13 C 81.86 85.29 80.66 85.61 79.42 85.67 C 78.39 83.57 75.45 81.70 77.03 79.14 C 78.58 79.42 78.46 81.75 79.33 82.86 C 81.84 83.10 84.02 81.41 86.06 80.16 C 86.42 81.05 86.80 81.94 87.17 82.83 C 88.74 81.13 90.46 79.59 92.19 78.06 C 92.95 77.97 94.48 77.79 95.25 77.70 C 98.78 78.55 100.70 81.96 101.98 85.07 C 102.13 88.67 98.49 90.22 96.11 92.13 C 92.63 95.09 88.58 97.27 84.95 100.03 C 83.72 100.90 82.60 101.91 81.49 102.92 C 79.53 103.97 77.06 106.23 74.94 104.22 C 74.51 101.76 72.98 99.66 71.32 97.86 C 71.25 99.07 71.23 100.28 71.09 101.48 C 67.86 99.06 64.57 96.74 61.12 94.65 C 58.52 92.62 55.80 90.77 53.11 88.89 Z" />
<path fill="#474747" d=" M 88.14 78.21 C 89.49 78.15 90.84 78.10 92.19 78.06 C 90.46 79.59 88.74 81.13 87.17 82.83 C 86.80 81.94 86.42 81.05 86.06 80.16 C 86.76 79.52 87.45 78.87 88.14 78.21 Z" />
<path fill="#333333" d=" M 24.97 78.77 L 25.60 79.19 C 25.93 79.42 26.58 79.89 26.90 80.12 C 28.24 81.12 29.58 82.12 30.91 83.12 C 33.22 84.86 35.64 86.45 37.94 88.21 C 39.49 89.35 41.10 90.39 42.77 91.34 C 45.18 93.62 48.10 95.24 50.72 97.25 C 52.41 98.58 54.15 99.83 55.80 101.20 C 56.03 101.40 56.50 101.78 56.73 101.97 C 57.67 102.74 58.70 103.39 59.72 104.06 C 61.40 104.61 63.29 107.29 60.30 107.36 C 55.80 107.15 51.30 107.03 46.80 106.92 C 46.60 104.60 48.43 105.36 49.90 105.61 C 50.63 103.63 50.90 101.52 49.36 99.84 C 49.97 103.74 46.19 104.02 44.82 106.93 C 42.90 107.00 40.98 107.04 39.07 107.05 C 39.84 104.74 39.28 102.31 39.14 99.95 C 40.55 98.15 41.30 95.98 41.91 93.81 C 39.29 94.54 35.87 97.70 39.14 99.95 C 38.37 102.27 36.65 104.69 37.97 107.06 C 37.16 107.07 35.54 107.09 34.73 107.10 C 33.50 105.43 30.13 104.10 30.71 101.71 C 33.19 100.20 32.81 102.91 33.99 104.27 C 35.37 100.73 33.00 98.32 31.17 95.95 C 29.37 98.04 31.72 98.79 31.24 100.34 C 29.95 100.61 27.59 99.70 27.98 101.88 C 24.90 99.64 25.98 103.66 26.86 105.44 C 28.12 107.51 26.95 110.27 28.82 112.02 C 27.34 112.97 25.68 114.16 23.93 113.12 C 23.66 111.65 20.95 109.10 23.64 108.77 C 22.80 107.57 22.07 106.29 21.45 104.96 C 20.02 107.57 20.34 110.67 19.98 113.51 C 21.27 113.48 22.57 113.47 23.83 113.80 C 23.68 116.80 24.96 119.73 24.47 122.80 C 25.12 122.91 26.41 123.14 27.06 123.25 C 24.83 124.28 22.75 125.60 20.68 126.92 C 20.75 126.14 20.88 124.59 20.94 123.82 C 19.97 124.76 19.15 125.83 18.26 126.85 C 16.96 124.19 15.49 120.95 17.10 118.09 C 17.86 114.88 17.26 111.50 18.79 108.42 C 16.22 108.03 18.28 106.34 18.88 105.05 C 17.80 103.89 15.88 103.53 14.68 104.74 C 13.49 105.50 12.40 106.40 11.26 107.23 C 11.05 102.83 14.32 100.45 18.06 99.03 C 21.99 100.00 20.77 96.85 20.08 94.38 C 21.28 94.72 22.39 94.57 22.98 93.34 C 18.86 92.78 23.89 91.32 25.15 90.20 C 24.37 90.14 22.81 90.01 22.03 89.95 C 22.84 89.13 23.78 88.38 24.12 87.22 C 22.43 86.76 19.19 87.77 19.96 84.94 C 19.59 82.82 22.02 85.78 22.91 85.96 C 22.96 84.62 23.00 83.29 23.05 81.95 C 24.97 81.53 23.22 86.06 24.84 84.66 C 27.12 83.46 25.14 80.64 24.97 78.77 Z" />
<path fill="#a7a7a7" d=" M 26.90 80.12 C 28.24 79.74 29.57 79.29 30.93 78.98 C 30.95 80.36 30.95 81.74 30.91 83.12 C 29.58 82.12 28.24 81.12 26.90 80.12 Z" />
<path fill="#2f2f2f" d=" M 3.98 80.01 C 8.47 77.81 12.44 86.74 7.16 86.92 C 6.45 84.04 3.60 83.01 3.98 80.01 Z" />
<path fill="#363636" d=" M 112.93 90.98 C 116.89 86.97 121.81 84.09 126.50 81.04 C 127.95 81.91 129.58 81.28 131.14 81.16 C 131.91 84.84 128.59 85.72 126.03 87.16 C 126.25 87.64 126.69 88.61 126.91 89.09 C 126.87 91.75 127.74 94.76 125.98 97.01 C 124.35 94.79 123.68 94.98 123.92 97.85 C 122.44 96.68 120.72 96.40 118.88 96.76 C 119.55 95.54 120.58 94.52 121.02 93.18 C 118.36 92.30 115.62 91.73 112.93 90.98 Z" />
<path fill="#414141" d=" M 131.14 81.16 C 131.61 81.12 132.55 81.03 133.03 80.98 C 132.64 83.60 131.84 86.19 132.26 88.86 C 131.13 89.93 130.39 92.46 128.43 91.75 C 127.92 90.86 127.41 89.97 126.91 89.09 C 126.69 88.61 126.25 87.64 126.03 87.16 C 128.59 85.72 131.91 84.84 131.14 81.16 Z" />
<path fill="#a2a2a2" d=" M 38.24 84.68 C 37.06 82.85 40.07 82.78 41.16 82.87 C 41.68 83.74 41.68 84.56 41.15 85.32 C 40.42 85.16 38.97 84.84 38.24 84.68 Z" />
<path fill="#bcbcbc" d=" M 37.94 88.21 C 38.90 87.46 39.83 86.69 40.77 85.92 C 42.99 86.94 43.28 89.16 42.77 91.34 C 41.10 90.39 39.49 89.35 37.94 88.21 Z" />
<path fill="#474747" d=" M 86.93 86.00 C 90.39 85.33 90.91 93.35 87.13 93.11 C 87.96 91.36 88.28 89.42 87.34 87.64 C 87.24 87.23 87.03 86.41 86.93 86.00 Z" />
<path fill="#3b3b3b" d=" M 9.99 87.90 L 10.84 88.17 C 11.32 89.41 12.28 91.90 12.76 93.15 C 12.56 91.71 11.09 89.08 13.76 90.10 C 11.31 95.86 16.39 94.24 18.99 95.16 C 19.08 96.52 18.61 97.81 18.06 99.03 C 14.32 100.45 11.05 102.83 11.26 107.23 C 10.48 109.82 15.23 108.69 14.41 112.11 C 16.47 109.96 15.40 107.21 14.68 104.74 C 15.88 103.53 17.80 103.89 18.88 105.05 C 18.28 106.34 16.22 108.03 18.79 108.42 C 17.26 111.50 17.86 114.88 17.10 118.09 C 14.73 115.79 14.17 118.85 13.79 120.86 C 12.99 119.44 11.59 119.34 10.12 119.47 C 8.79 117.82 10.13 115.57 8.96 113.95 C 10.00 112.80 11.20 111.80 12.15 110.58 C 10.60 110.53 9.24 109.82 7.89 109.12 C 8.16 110.32 8.69 112.74 8.96 113.95 C 8.71 114.40 8.21 115.29 7.96 115.74 C 6.39 114.34 4.23 114.39 2.26 114.17 C 1.86 115.83 2.32 118.20 0.00 118.40 L 0.00 108.87 C 0.86 109.91 2.57 110.41 3.38 108.99 C 5.36 110.01 6.62 109.93 5.88 107.38 C 8.14 108.59 8.49 106.31 6.96 105.03 C 8.98 105.34 11.14 104.54 11.13 102.18 C 9.58 102.37 8.05 102.68 6.57 103.16 C 4.86 99.18 11.52 98.12 10.02 94.06 C 10.01 92.52 10.00 89.44 9.99 87.90 Z" />
<path fill="#444444" d=" M 27.18 88.11 C 29.86 87.35 29.82 91.32 30.08 93.09 C 28.50 92.66 28.65 89.20 26.67 90.60 C 24.96 91.53 26.45 88.44 27.18 88.11 Z" />
<path fill="#474747" d=" M 85.25 88.16 C 85.78 88.03 86.82 87.77 87.34 87.64 C 86.27 89.87 84.56 92.38 85.72 94.90 C 84.43 96.55 82.22 96.38 83.83 94.14 C 79.62 93.89 86.29 90.83 85.25 88.16 Z" />
<path fill="#d5d5d5" d=" M 53.11 88.89 C 55.80 90.77 58.52 92.62 61.12 94.65 C 59.17 94.59 58.94 96.05 59.00 97.63 C 56.54 96.39 56.71 99.73 55.80 101.20 C 54.15 99.83 52.41 98.58 50.72 97.25 L 51.69 97.01 C 53.20 97.65 54.69 98.32 56.23 98.90 C 55.42 96.92 53.05 96.08 52.70 93.86 C 53.45 92.28 53.57 90.57 53.11 88.89 Z" />
<path fill="#2f2f2f" d=" M 126.91 89.09 C 127.41 89.97 127.92 90.86 128.43 91.75 C 130.39 92.46 131.13 89.93 132.26 88.86 C 132.57 89.82 132.88 90.78 133.19 91.74 C 134.46 91.11 135.70 90.39 137.02 89.85 C 135.94 91.57 134.23 92.98 133.90 95.08 C 135.88 93.96 140.27 92.04 140.04 96.03 C 140.34 98.66 136.73 93.01 136.25 96.27 C 135.11 99.61 139.34 98.02 140.95 99.06 C 140.48 101.18 139.13 102.82 138.14 99.95 C 138.12 102.14 136.42 104.76 138.37 106.54 C 140.26 108.56 136.23 108.18 135.02 108.78 C 133.20 109.47 134.79 106.02 133.09 105.89 C 132.99 107.31 132.90 108.74 132.81 110.16 C 130.79 108.42 129.27 106.22 127.60 104.18 C 125.26 105.20 124.94 107.84 124.38 110.02 C 119.88 110.44 124.34 105.80 121.87 104.28 C 119.72 104.70 117.45 105.07 115.78 106.60 C 114.28 106.89 111.27 107.47 109.77 107.76 L 109.11 107.74 C 106.39 107.40 103.69 107.08 100.95 106.96 C 98.85 104.50 101.31 102.20 103.90 103.67 C 102.48 101.05 104.90 99.29 106.85 97.93 C 107.31 101.49 109.95 102.00 113.08 101.83 C 109.95 98.76 113.71 95.18 112.02 91.88 C 112.24 91.65 112.70 91.21 112.93 90.98 C 115.62 91.73 118.36 92.30 121.02 93.18 C 120.58 94.52 119.55 95.54 118.88 96.76 C 120.72 96.40 122.44 96.68 123.92 97.85 C 123.68 94.98 124.35 94.79 125.98 97.01 C 127.74 94.76 126.87 91.75 126.91 89.09 Z" />
<path fill="#2d2d2d" d=" M 1.15 94.85 C 1.62 93.13 2.96 92.08 4.60 91.57 C 5.33 92.57 5.98 92.85 6.36 91.43 C 7.70 92.13 8.93 93.01 10.02 94.06 C 11.52 98.12 4.86 99.18 6.57 103.16 C 6.67 103.63 6.86 104.56 6.96 105.03 C 4.36 104.19 3.47 106.11 5.88 107.38 C 6.62 109.93 5.36 110.01 3.38 108.99 C 3.42 106.79 1.08 106.49 0.00 108.14 L 0.00 100.25 C 1.34 100.72 2.68 100.44 3.93 99.84 C 4.65 97.51 2.73 96.12 1.15 94.85 Z" />
<path fill="#aeaeae" d=" M 98.98 93.04 C 102.09 90.50 104.94 92.74 103.93 97.25 C 103.55 97.49 102.78 97.97 102.40 98.20 C 102.39 95.80 100.77 94.34 98.98 93.04 Z" />
<path fill="#373737" d=" M 103.93 97.25 C 106.56 95.36 109.17 93.44 112.02 91.88 C 113.71 95.18 109.95 98.76 113.08 101.83 C 109.95 102.00 107.31 101.49 106.85 97.93 C 104.90 99.29 102.48 101.05 103.90 103.67 C 101.31 102.20 98.85 104.50 100.95 106.96 C 98.26 106.96 95.57 107.01 92.89 107.10 L 92.15 107.11 C 94.06 103.73 96.81 100.65 100.49 99.23 C 100.97 98.97 101.93 98.46 102.40 98.20 C 102.78 97.97 103.55 97.49 103.93 97.25 Z" />
<path fill="#545454" d=" M 39.14 99.95 C 35.87 97.70 39.29 94.54 41.91 93.81 C 41.30 95.98 40.55 98.15 39.14 99.95 Z" />
<path fill="#a7a7a7" d=" M 51.69 97.01 C 52.00 95.95 52.33 94.90 52.70 93.86 C 53.05 96.08 55.42 96.92 56.23 98.90 C 54.69 98.32 53.20 97.65 51.69 97.01 Z" />
<path fill="#414141" d=" M 1.15 94.85 C 2.73 96.12 4.65 97.51 3.93 99.84 C 2.68 100.44 1.34 100.72 0.00 100.25 L 0.00 97.40 C 0.29 96.76 0.87 95.49 1.15 94.85 Z" />
<path fill="#e1e1e1" d=" M 59.00 97.63 C 58.94 96.05 59.17 94.59 61.12 94.65 C 64.57 96.74 67.86 99.06 71.09 101.48 C 72.30 102.50 73.62 103.36 74.94 104.22 C 77.06 106.23 79.53 103.97 81.49 102.92 C 82.65 104.43 84.09 103.50 85.39 102.77 C 86.18 104.47 84.31 107.52 87.27 107.33 C 88.76 109.89 85.15 112.24 86.80 114.77 C 86.31 115.04 85.34 115.57 84.86 115.84 L 84.08 115.87 C 84.08 112.97 79.93 115.55 77.98 114.51 C 74.40 113.45 65.68 118.26 66.83 111.76 C 67.75 111.31 69.68 111.51 69.77 110.21 C 69.14 109.47 68.37 107.95 67.22 108.32 C 66.91 109.44 66.78 110.58 66.83 111.76 C 66.46 112.78 66.08 113.79 65.69 114.79 C 60.80 114.38 55.90 114.83 51.00 114.72 C 48.42 115.51 45.22 113.68 42.78 115.31 C 42.53 115.41 42.05 115.63 41.80 115.74 L 41.20 115.97 C 39.21 115.49 37.19 115.95 35.18 115.88 C 33.05 113.61 31.54 109.14 35.23 107.55 C 36.80 107.73 38.53 110.76 39.62 108.50 C 44.06 109.63 50.01 105.88 53.64 109.50 C 55.34 107.73 58.22 108.54 60.30 107.36 C 63.29 107.29 61.40 104.61 59.72 104.06 C 60.26 102.99 60.82 101.94 61.39 100.90 C 63.07 98.98 60.41 98.32 59.00 97.63 Z" />
<path fill="#a6a6a6" d=" M 95.20 95.11 C 97.21 96.10 99.86 96.77 100.49 99.23 C 98.29 97.34 95.89 98.28 93.95 99.94 C 94.32 98.32 94.76 96.71 95.20 95.11 Z" />
<path fill="#424242" d=" M 31.17 95.95 C 33.00 98.32 35.37 100.73 33.99 104.27 C 32.81 102.91 33.19 100.20 30.71 101.71 C 30.84 101.37 31.11 100.68 31.24 100.34 C 31.72 98.79 29.37 98.04 31.17 95.95 Z" />
<path fill="#a0a0a0" d=" M 55.80 101.20 C 56.71 99.73 56.54 96.39 59.00 97.63 C 60.41 98.32 63.07 98.98 61.39 100.90 C 59.74 99.41 57.65 100.10 56.73 101.97 C 56.50 101.78 56.03 101.40 55.80 101.20 Z" />
<path fill="#454545" d=" M 71.32 97.86 C 72.98 99.66 74.51 101.76 74.94 104.22 C 73.62 103.36 72.30 102.50 71.09 101.48 C 71.23 100.28 71.25 99.07 71.32 97.86 Z" />
<path fill="#2c2c2c" d=" M 27.98 101.88 C 27.59 99.70 29.95 100.61 31.24 100.34 C 31.11 100.68 30.84 101.37 30.71 101.71 C 30.13 104.10 33.50 105.43 34.73 107.10 L 35.23 107.55 C 31.54 109.14 33.05 113.61 35.18 115.88 C 37.19 115.95 39.21 115.49 41.20 115.97 C 40.36 117.97 38.58 117.85 36.78 117.37 C 37.59 119.06 38.76 120.55 39.86 122.07 C 40.42 123.71 37.88 127.86 41.03 126.78 C 41.70 128.45 42.00 130.22 42.21 132.00 L 24.01 132.00 C 24.86 130.03 25.56 127.99 26.06 125.90 C 24.89 127.52 20.89 130.71 20.68 126.92 C 22.75 125.60 24.83 124.28 27.06 123.25 C 26.41 123.14 25.12 122.91 24.47 122.80 C 24.96 119.73 23.68 116.80 23.83 113.80 L 23.93 113.12 C 25.68 114.16 27.34 112.97 28.82 112.02 C 26.95 110.27 28.12 107.51 26.86 105.44 C 28.38 104.57 29.18 103.42 27.98 101.88 Z" />
<path fill="#434343" d=" M 37.97 107.06 C 36.65 104.69 38.37 102.27 39.14 99.95 C 39.28 102.31 39.84 104.74 39.07 107.05 L 37.97 107.06 Z" />
<path fill="#4b4b4b" d=" M 49.36 99.84 C 50.90 101.52 50.63 103.63 49.90 105.61 C 48.43 105.36 46.60 104.60 46.80 106.92 C 46.30 106.92 45.31 106.93 44.82 106.93 C 46.19 104.02 49.97 103.74 49.36 99.84 Z" />
<path fill="#cfcfcf" d=" M 56.73 101.97 C 57.65 100.10 59.74 99.41 61.39 100.90 C 60.82 101.94 60.26 102.99 59.72 104.06 C 58.70 103.39 57.67 102.74 56.73 101.97 Z" />
<path fill="#a9a9a9" d=" M 81.49 102.92 C 82.60 101.91 83.72 100.90 84.95 100.03 C 85.06 100.71 85.28 102.09 85.39 102.77 C 84.09 103.50 82.65 104.43 81.49 102.92 Z" />
<path fill="#464646" d=" M 26.86 105.44 C 25.98 103.66 24.90 99.64 27.98 101.88 C 29.18 103.42 28.38 104.57 26.86 105.44 Z" />
<path fill="#4c4c4c" d=" M 6.57 103.16 C 8.05 102.68 9.58 102.37 11.13 102.18 C 11.14 104.54 8.98 105.34 6.96 105.03 C 6.86 104.56 6.67 103.63 6.57 103.16 Z" />
<path fill="#efefef" d=" M 89.33 102.01 C 90.54 103.63 92.19 107.82 89.08 108.46 C 90.45 111.05 91.61 109.09 92.15 107.11 L 92.89 107.10 C 92.75 108.57 93.74 108.63 94.88 108.47 C 95.94 109.36 95.93 110.83 96.39 112.03 C 99.97 110.50 92.87 103.87 102.03 107.95 C 103.51 107.64 104.70 108.45 105.47 109.65 C 106.76 109.17 107.91 108.40 109.11 107.74 L 109.77 107.76 C 109.83 108.26 109.94 109.27 109.99 109.78 C 112.50 107.57 116.12 108.25 119.19 107.74 C 122.09 109.10 122.09 113.88 119.21 115.25 C 112.72 114.55 106.21 114.78 99.71 114.64 C 98.62 115.11 97.49 112.56 96.94 114.01 C 96.49 115.50 94.85 114.52 94.72 113.40 C 92.62 115.54 89.43 114.21 86.80 114.77 C 85.15 112.24 88.76 109.89 87.27 107.33 C 88.14 105.63 88.80 103.84 89.33 102.01 Z" />
<path fill="#353535" d=" M 115.78 106.60 C 117.45 105.07 119.72 104.70 121.87 104.28 C 124.34 105.80 119.88 110.44 124.38 110.02 C 124.29 110.45 124.12 111.33 124.04 111.77 C 129.15 109.81 121.48 114.87 124.99 115.92 C 128.21 116.06 130.57 119.03 129.14 122.08 C 128.97 123.61 126.09 125.70 128.65 126.42 C 128.46 129.34 125.38 126.71 124.12 125.82 C 124.46 127.88 125.30 130.04 124.12 132.00 L 110.15 132.00 C 109.42 131.06 108.63 130.15 108.04 129.12 C 110.00 126.83 109.70 123.47 112.14 121.30 C 112.37 120.75 112.84 119.65 113.08 119.10 C 114.77 120.89 118.32 126.38 115.99 117.36 C 114.55 117.37 112.36 116.78 113.08 119.10 C 111.26 119.16 110.20 117.68 109.72 116.11 C 112.81 115.73 116.40 116.90 119.21 115.25 C 122.09 113.88 122.09 109.10 119.19 107.74 C 118.11 107.20 116.98 106.82 115.78 106.60 Z" />
<path fill="#525252" d=" M 5.88 107.38 C 3.47 106.11 4.36 104.19 6.96 105.03 C 8.49 106.31 8.14 108.59 5.88 107.38 Z" />
<path fill="#202020" d=" M 11.26 107.23 C 12.40 106.40 13.49 105.50 14.68 104.74 C 15.40 107.21 16.47 109.96 14.41 112.11 C 15.23 108.69 10.48 109.82 11.26 107.23 Z" />
<path fill="#424242" d=" M 19.98 113.51 C 20.34 110.67 20.02 107.57 21.45 104.96 C 22.07 106.29 22.80 107.57 23.64 108.77 C 20.95 109.10 23.66 111.65 23.93 113.12 L 23.83 113.80 C 22.57 113.47 21.27 113.48 19.98 113.51 Z" />
<path fill="#4e4e4e" d=" M 0.00 108.14 C 1.08 106.49 3.42 106.79 3.38 108.99 C 2.57 110.41 0.86 109.91 0.00 108.87 L 0.00 108.14 Z" />
<path fill="#bbbbbb" d=" M 34.73 107.10 C 35.54 107.09 37.16 107.07 37.97 107.06 L 39.07 107.05 C 40.98 107.04 42.90 107.00 44.82 106.93 C 45.31 106.93 46.30 106.92 46.80 106.92 C 51.30 107.03 55.80 107.15 60.30 107.36 C 58.22 108.54 55.34 107.73 53.64 109.50 C 50.01 105.88 44.06 109.63 39.62 108.50 C 38.53 110.76 36.80 107.73 35.23 107.55 L 34.73 107.10 Z" />
<path fill="#858585" d=" M 80.36 107.25 C 84.46 106.59 79.26 111.04 78.64 112.75 C 74.54 113.40 79.74 108.96 80.36 107.25 Z" />
<path fill="#b8b8b8" d=" M 92.89 107.10 C 95.57 107.01 98.26 106.96 100.95 106.96 C 103.69 107.08 106.39 107.40 109.11 107.74 C 107.91 108.40 106.76 109.17 105.47 109.65 C 104.70 108.45 103.51 107.64 102.03 107.95 C 92.87 103.87 99.97 110.50 96.39 112.03 C 95.93 110.83 95.94 109.36 94.88 108.47 C 93.74 108.63 92.75 108.57 92.89 107.10 Z" />
<path fill="#b9b9b9" d=" M 109.77 107.76 C 111.27 107.47 114.28 106.89 115.78 106.60 C 116.98 106.82 118.11 107.20 119.19 107.74 C 116.12 108.25 112.50 107.57 109.99 109.78 C 109.94 109.27 109.83 108.26 109.77 107.76 Z" />
<path fill="#b7b7b7" d=" M 67.22 108.32 C 68.37 107.95 69.14 109.47 69.77 110.21 C 69.68 111.51 67.75 111.31 66.83 111.76 C 66.78 110.58 66.91 109.44 67.22 108.32 Z" />
<path fill="#434343" d=" M 146.84 110.88 C 147.21 109.36 148.08 107.72 149.89 107.83 C 148.79 110.55 147.51 113.25 147.00 116.17 C 149.84 114.91 148.62 110.16 151.87 109.82 C 150.73 112.73 149.45 115.68 149.13 118.82 C 150.31 119.94 150.47 121.39 150.26 122.94 C 154.93 123.85 148.59 115.86 153.00 114.58 L 153.00 132.00 L 133.84 132.00 C 134.13 131.73 134.71 131.19 135.00 130.91 C 135.58 130.15 136.06 129.32 136.45 128.43 C 140.01 129.22 141.22 123.84 140.06 121.21 C 140.52 121.36 141.46 121.64 141.92 121.79 C 141.21 119.25 141.37 116.63 141.44 114.04 C 145.27 112.75 142.57 117.15 143.00 119.21 C 144.71 116.66 145.90 113.80 146.84 110.88 Z" />
<path fill="#242424" d=" M 7.89 109.12 C 9.24 109.82 10.60 110.53 12.15 110.58 C 11.20 111.80 10.00 112.80 8.96 113.95 C 8.69 112.74 8.16 110.32 7.89 109.12 Z" />
<path fill="#c5c5c5" d=" M 114.14 109.29 C 115.44 109.54 116.72 109.88 118.02 110.17 C 116.59 110.96 116.12 113.32 114.19 112.91 C 113.91 111.68 112.30 110.00 114.14 109.29 Z" />
<path fill="#b5b5b5" d=" M 65.69 114.79 C 66.08 113.79 66.46 112.78 66.83 111.76 C 65.68 118.26 74.40 113.45 77.98 114.51 C 79.93 115.55 84.08 112.97 84.08 115.87 C 82.00 115.98 79.92 116.04 77.84 116.10 C 77.32 116.11 76.29 116.12 75.77 116.12 C 75.05 116.10 73.60 116.07 72.88 116.06 C 66.90 115.96 60.92 115.95 54.94 116.00 C 52.29 116.01 49.64 116.03 47.00 116.08 C 45.57 115.92 44.16 115.68 42.78 115.31 C 45.22 113.68 48.42 115.51 51.00 114.72 C 55.90 114.83 60.80 114.38 65.69 114.79 Z" />
<path fill="#b5b5b5" d=" M 86.80 114.77 C 89.43 114.21 92.62 115.54 94.72 113.40 C 94.85 114.52 96.49 115.50 96.94 114.01 C 97.49 112.56 98.62 115.11 99.71 114.64 C 106.21 114.78 112.72 114.55 119.21 115.25 C 116.40 116.90 112.81 115.73 109.72 116.11 L 108.80 116.09 C 104.50 115.99 100.19 115.96 95.89 116.00 C 94.28 115.99 92.67 116.01 91.06 116.06 L 90.17 116.07 C 88.40 116.00 86.63 115.91 84.86 115.84 C 85.34 115.57 86.31 115.04 86.80 114.77 Z" />
<path fill="#262626" d=" M 2.26 114.17 C 4.23 114.39 6.39 114.34 7.96 115.74 C 8.21 115.29 8.71 114.40 8.96 113.95 C 10.13 115.57 8.79 117.82 10.12 119.47 C 11.59 119.34 12.99 119.44 13.79 120.86 C 14.17 118.85 14.73 115.79 17.10 118.09 C 15.49 120.95 16.96 124.19 18.26 126.85 C 19.15 125.83 19.97 124.76 20.94 123.82 C 20.88 124.59 20.75 126.14 20.68 126.92 C 19.73 128.57 20.00 130.41 20.95 132.00 L 15.95 132.00 C 15.57 129.56 17.82 126.36 15.26 124.69 C 13.15 120.11 10.05 125.59 7.18 122.82 C 7.35 121.48 7.68 120.16 7.87 118.83 C 4.93 120.99 1.56 122.79 0.00 126.31 L 0.00 118.40 C 2.32 118.20 1.86 115.83 2.26 114.17 Z" />
<path fill="#2a2a2a" d=" M 41.80 115.74 C 42.05 115.63 42.53 115.41 42.78 115.31 C 44.16 115.68 45.57 115.92 47.00 116.08 C 45.34 118.43 43.96 121.61 47.84 122.39 C 46.72 123.84 45.34 125.07 44.23 126.53 C 46.61 127.12 47.03 132.85 44.09 129.97 C 43.31 128.68 42.71 127.09 41.03 126.78 C 40.95 124.94 43.38 121.15 39.86 122.07 C 39.60 119.55 42.35 119.52 44.14 119.49 C 43.50 118.16 42.62 116.96 41.80 115.74 Z" />
<path fill="#3e3e3e" d=" M 41.20 115.97 L 41.80 115.74 C 42.62 116.96 43.50 118.16 44.14 119.49 C 42.35 119.52 39.60 119.55 39.86 122.07 C 38.76 120.55 37.59 119.06 36.78 117.37 C 38.58 117.85 40.36 117.97 41.20 115.97 Z" />
<path fill="#373737" d=" M 47.00 116.08 C 49.64 116.03 52.29 116.01 54.94 116.00 C 54.97 117.38 55.03 118.76 55.12 120.14 C 56.34 119.76 57.20 118.82 58.14 118.01 C 58.00 119.65 57.79 121.28 57.49 122.90 C 56.68 124.82 57.40 126.74 58.95 128.01 C 59.84 129.01 60.86 129.87 62.13 130.35 C 60.99 130.96 59.79 131.44 58.63 132.00 L 44.08 132.00 C 44.08 131.49 44.09 130.48 44.09 129.97 C 47.03 132.85 46.61 127.12 44.23 126.53 C 45.34 125.07 46.72 123.84 47.84 122.39 C 43.96 121.61 45.34 118.43 47.00 116.08 Z" />
<path fill="#292929" d=" M 54.94 116.00 C 60.92 115.95 66.90 115.96 72.88 116.06 C 74.24 117.05 76.22 117.95 75.40 119.96 C 76.33 119.72 77.26 119.48 78.19 119.23 C 78.07 121.61 75.71 123.31 76.09 125.75 C 77.11 126.19 78.15 126.60 79.20 126.97 C 78.86 125.93 78.21 125.14 77.26 124.60 C 78.44 123.57 80.47 122.96 80.03 121.00 C 80.32 118.41 77.18 117.74 75.77 116.12 C 76.29 116.12 77.32 116.11 77.84 116.10 C 80.99 117.41 80.93 121.66 84.41 122.49 C 86.54 120.55 88.83 118.68 90.17 116.07 L 91.06 116.06 C 90.65 117.90 90.29 119.75 90.09 121.63 C 92.29 121.43 94.51 121.36 96.68 121.89 C 96.29 119.95 96.02 117.98 95.89 116.00 C 100.19 115.96 104.50 115.99 108.80 116.09 C 108.61 118.65 109.65 120.53 112.14 121.30 C 109.70 123.47 110.00 126.83 108.04 129.12 C 108.63 130.15 109.42 131.06 110.15 132.00 L 58.63 132.00 C 59.79 131.44 60.99 130.96 62.13 130.35 C 63.82 128.69 62.98 125.95 63.53 123.81 C 64.00 121.72 69.37 121.60 66.96 119.12 C 65.95 119.69 65.01 120.37 64.01 120.94 C 62.20 119.52 59.48 115.11 61.68 123.92 C 61.49 126.07 61.96 128.21 62.13 130.35 C 60.86 129.87 59.84 129.01 58.95 128.01 C 59.53 126.02 60.02 123.98 60.12 121.90 C 59.30 122.76 58.60 124.55 57.49 122.90 C 57.79 121.28 58.00 119.65 58.14 118.01 C 57.20 118.82 56.34 119.76 55.12 120.14 C 55.03 118.76 54.97 117.38 54.94 116.00 Z" />
<path fill="#3d3d3d" d=" M 72.88 116.06 C 73.60 116.07 75.05 116.10 75.77 116.12 C 77.18 117.74 80.32 118.41 80.03 121.00 C 80.47 122.96 78.44 123.57 77.26 124.60 C 78.21 125.14 78.86 125.93 79.20 126.97 C 78.15 126.60 77.11 126.19 76.09 125.75 C 75.71 123.31 78.07 121.61 78.19 119.23 C 77.26 119.48 76.33 119.72 75.40 119.96 C 76.22 117.95 74.24 117.05 72.88 116.06 Z" />
<path fill="#383838" d=" M 77.84 116.10 C 79.92 116.04 82.00 115.98 84.08 115.87 L 84.86 115.84 C 86.63 115.91 88.40 116.00 90.17 116.07 C 88.83 118.68 86.54 120.55 84.41 122.49 C 80.93 121.66 80.99 117.41 77.84 116.10 Z" />
<path fill="#373737" d=" M 91.06 116.06 C 92.67 116.01 94.28 115.99 95.89 116.00 C 96.02 117.98 96.29 119.95 96.68 121.89 C 94.51 121.36 92.29 121.43 90.09 121.63 C 90.29 119.75 90.65 117.90 91.06 116.06 Z" />
<path fill="#494949" d=" M 108.80 116.09 L 109.72 116.11 C 110.20 117.68 111.26 119.16 113.08 119.10 C 112.84 119.65 112.37 120.75 112.14 121.30 C 109.65 120.53 108.61 118.65 108.80 116.09 Z" />
<path fill="#474747" d=" M 113.08 119.10 C 112.36 116.78 114.55 117.37 115.99 117.36 C 118.32 126.38 114.77 120.89 113.08 119.10 Z" />
<path fill="#232323" d=" M 51.21 118.34 C 52.41 117.34 52.25 120.04 52.76 120.72 C 51.47 121.45 50.23 122.27 48.94 123.01 C 48.65 121.01 49.49 119.36 51.21 118.34 Z" />
<path fill="#3d3d3d" d=" M 96.95 118.00 C 99.53 117.21 98.56 121.15 101.12 119.12 C 101.34 123.63 96.49 121.05 96.95 118.00 Z" />
<path fill="#3d3d3d" d=" M 0.00 126.31 C 1.56 122.79 4.93 120.99 7.87 118.83 C 7.68 120.16 7.35 121.48 7.18 122.82 C 10.05 125.59 13.15 120.11 15.26 124.69 C 17.82 126.36 15.57 129.56 15.95 132.00 L 15.19 132.00 C 14.09 129.75 13.24 127.34 11.78 125.29 C 10.22 125.24 8.65 125.23 7.09 125.21 C 7.30 126.83 8.99 130.14 6.24 128.13 C 6.21 125.43 2.19 117.38 4.10 127.72 C 4.64 127.82 5.70 128.03 6.24 128.13 C 5.90 129.43 5.52 130.73 5.07 132.00 L 0.00 132.00 L 0.00 126.31 Z" />
<path fill="#353535" d=" M 61.68 123.92 C 59.48 115.11 62.20 119.52 64.01 120.94 C 65.01 120.37 65.95 119.69 66.96 119.12 C 69.37 121.60 64.00 121.72 63.53 123.81 C 62.98 125.95 63.82 128.69 62.13 130.35 C 61.96 128.21 61.49 126.07 61.68 123.92 Z" />
<path fill="#4b4b4b" d=" M 118.33 121.35 C 121.78 121.29 117.60 126.81 116.27 123.85 C 116.41 122.73 118.03 122.53 118.33 121.35 Z" />
<path fill="#494949" d=" M 39.86 122.07 C 43.38 121.15 40.95 124.94 41.03 126.78 C 37.88 127.86 40.42 123.71 39.86 122.07 Z" />
<path fill="#474747" d=" M 57.49 122.90 C 58.60 124.55 59.30 122.76 60.12 121.90 C 60.02 123.98 59.53 126.02 58.95 128.01 C 57.40 126.74 56.68 124.82 57.49 122.90 Z" />
<path fill="#3a3a3a" d=" M 67.32 122.33 C 69.40 122.14 67.80 128.78 71.11 126.12 C 71.21 128.05 69.45 129.09 68.12 130.13 C 68.04 128.73 67.97 127.34 67.91 125.94 C 66.68 126.82 65.62 128.11 63.95 128.05 C 63.92 125.61 66.47 124.44 67.32 122.33 Z" />
<path fill="#414141" d=" M 134.27 122.32 C 135.55 120.96 135.44 125.58 134.00 125.03 C 132.63 125.35 131.29 125.77 129.90 126.01 C 130.76 124.22 132.48 123.05 134.27 122.32 Z" />
<path fill="#191919" d=" M 4.10 127.72 C 2.19 117.38 6.21 125.43 6.24 128.13 C 5.70 128.03 4.64 127.82 4.10 127.72 Z" />
<path fill="#171717" d=" M 7.09 125.21 C 8.65 125.23 10.22 125.24 11.78 125.29 C 13.24 127.34 14.09 129.75 15.19 132.00 L 5.07 132.00 C 5.52 130.73 5.90 129.43 6.24 128.13 C 8.99 130.14 7.30 126.83 7.09 125.21 Z" />
<path fill="#3d3d3d" d=" M 20.68 126.92 C 20.89 130.71 24.89 127.52 26.06 125.90 C 25.56 127.99 24.86 130.03 24.01 132.00 L 20.95 132.00 C 20.00 130.41 19.73 128.57 20.68 126.92 Z" />
<path fill="#4b4b4b" d=" M 41.03 126.78 C 42.71 127.09 43.31 128.68 44.09 129.97 C 44.09 130.48 44.08 131.49 44.08 132.00 L 42.21 132.00 C 42.00 130.22 41.70 128.45 41.03 126.78 Z" />
<path fill="#363636" d=" M 125.72 132.00 C 128.00 129.20 131.52 128.57 134.91 128.00 C 134.94 128.73 134.98 130.19 135.00 130.91 C 134.71 131.19 134.13 131.73 133.84 132.00 L 125.72 132.00 Z" />
</svg>
